<?xml version="1.0" standalone="no"?>
 <!DOCTYPE svg PUBLIC "-//W3C//DTD SVG 1.1//EN" 
 "http://www.w3.org/Graphics/SVG/1.1/DTD/svg11.dtd"> 
<svg
  xmlns:svg="http://www.w3.org/2000/svg"
  xmlns="http://www.w3.org/2000/svg"
  xmlns:xlink="http://www.w3.org/1999/xlink"
  version="1.1"
  width="297.0022mm" height="210.0072mm" viewBox="0.0000 0.0000 297.0022 210.0072">
<title>SVG Image created as CONNECT_programmer-F_Silkscreen.svg date 2025/07/08 10:36:54 </title>
  <desc>Image generated by PCBNEW </desc>
<g style="fill:#000000; fill-opacity:1.0000;stroke:#000000; stroke-opacity:1.0000;
stroke-linecap:round; stroke-linejoin:round;"
 transform="translate(0 0) scale(1 1)">
<path style="fill:#000000; fill-opacity:1.0000; 
stroke:#000000; stroke-width:0.0100; stroke-opacity:1; 
stroke-linecap:round; stroke-linejoin:round;fill-rule:evenodd;"
d="M 102.5200,106.4200
102.5200,106.5000
102.4700,106.5500
102.2700,106.6900
102.2900,106.7400
102.4800,106.8800
102.5200,106.9400
102.5200,107.0100
102.4500,107.0200
101.9500,106.7900
101.5300,107.0000
101.4600,107.0200
101.4500,106.9400
101.4700,106.8700
101.6600,106.7300
101.6500,106.6800
101.4600,106.5400
101.4500,106.4600
101.4800,106.4000
101.5500,106.4300
101.9000,106.6100
101.9700,106.6200
102.4700,106.3800
Z" /> 
<path style="fill:#000000; fill-opacity:1.0000; 
stroke:#000000; stroke-width:0.0100; stroke-opacity:1; 
stroke-linecap:round; stroke-linejoin:round;fill-rule:evenodd;"
d="M 102.2100,105.5400
102.3000,105.5500
102.3600,105.5800
102.4100,105.6200
102.3200,105.7200
102.2700,105.6900
102.1900,105.6700
102.0300,105.6700
101.8600,105.6700
101.7900,105.6700
101.7000,105.6900
101.6500,105.7100
101.5900,105.7800
101.5800,105.8600
101.5800,105.9400
101.5900,106.0000
102.3900,106.0000
102.3900,105.8400
102.3800,105.7900
102.3300,105.7200
102.4100,105.6200
102.4700,105.6800
102.5200,105.7600
102.5200,106.0800
102.5200,106.1100
102.4600,106.1400
101.5000,106.1400
101.4500,106.1000
101.4500,105.7800
101.4800,105.7000
101.5400,105.6300
101.6000,105.5900
101.6500,105.5600
101.7300,105.5400
101.8100,105.5400
101.8800,105.5300
102.0600,105.5300
Z" /> 
<path style="fill:#000000; fill-opacity:1.0000; 
stroke:#000000; stroke-width:0.0100; stroke-opacity:1; 
stroke-linecap:round; stroke-linejoin:round;fill-rule:evenodd;"
d="M 101.5800,107.3400
101.5800,107.4200
101.5800,107.5000
102.4600,107.5000
102.5200,107.5300
102.5200,107.6100
102.4500,107.6400
101.6600,107.6400
101.5800,107.6400
101.5800,107.8000
101.5600,107.8600
101.4800,107.8700
101.4500,107.8100
101.4500,107.3400
101.4800,107.2800
101.5600,107.2800
Z" /> 
</g>
<g style="fill:none; 
stroke:#000000; stroke-width:0.1200; stroke-opacity:1; 
stroke-linecap:round; stroke-linejoin:round;">
<path d="M96.4380 126.2500
L96.4380 124.5000
" />
<path d="M105.6880 122.0750
L105.6880 122.2250
" />
<path d="M105.6130 128.7000
L105.6130 130.0000
" />
<path d="M105.5880 124.5250
L105.5880 126.2250
" />
<path d="M96.2880 122.0750
L96.2880 122.2750
" />
<path d="M105.6880 122.0750
L104.7380 122.0750
" />
<path d="M96.4130 130.0000
L96.4130 128.7000
" />
<path d="M97.2630 122.0750
L96.2880 122.0750
" />
<path d="M96.4130 130.0000
L105.6130 130.0000
" />
<path style="fill:none; 
stroke:#000000; stroke-width:0.1200; stroke-opacity:1; 
stroke-linecap:round; stroke-linejoin:round;fill:none"
d="M 106.0500,103.3100
108.9500,103.3100
108.9500,101.6900
106.0500,101.6900
Z" /> 
<circle cx="106.6000" cy="102.9000" r="0.2000" /> 
</g>
<g style="fill:none; 
stroke:#000000; stroke-width:0.2000; stroke-opacity:1; 
stroke-linecap:round; stroke-linejoin:round;">
<path d="M96.3000 103.5000
L95.3000 103.5000
" />
<path d="M95.3000 101.4000
L95.3000 100.5000
" />
<path d="M95.3000 103.5000
L95.3000 102.6000
" />
<path d="M95.3000 100.5000
L96.3000 100.5000
" />
<path d="M93.1500 123.8500
L92.8500 123.8500
" />
<path d="M93.1500 123.1500
L92.8500 123.1500
" />
<path style="fill:#000000; fill-opacity:1.0000; 
stroke:#000000; stroke-width:0.0100; stroke-opacity:1; 
stroke-linecap:round; stroke-linejoin:round;fill-rule:evenodd;"
d="M 107.9100,92.0400
107.9100,97.9200
107.8400,97.9500
107.1300,98.3100
107.0500,98.2900
106.3400,97.9300
106.3100,97.8700
106.3100,97.5500
106.3100,97.5200
106.3100,95.1800
106.5600,95.1800
106.5600,95.2700
106.5700,95.3500
106.6000,95.4200
106.6500,95.4800
106.7100,95.5200
106.6100,95.7900
106.5600,95.8100
106.5600,95.9700
106.6300,96.0000
107.3300,96.1400
107.3300,96.1700
106.6300,96.3200
106.5600,96.3400
106.5600,96.4200
106.5600,96.5000
106.6100,96.5300
106.7400,96.8300
106.6800,96.8700
106.6200,96.9200
106.5800,96.9900
106.5600,97.0700
106.5600,97.1500
106.5800,97.2300
106.6100,97.3000
106.6600,97.3600
106.7300,97.3900
106.8000,97.4100
106.8900,97.4100
106.9000,97.3400
106.9000,97.2600
106.7700,97.1900
106.7500,97.1100
106.7700,97.0400
106.8400,97.0100
106.9300,97.0100
106.9900,97.0600
107.0000,97.1300
107.0600,97.1600
107.1400,97.1600
107.1800,97.1100
107.2100,97.0400
107.2700,97.0000
107.3600,97.0000
107.4200,97.0400
107.4400,97.1200
107.4100,97.2000
107.3500,97.2400
107.2700,97.2500
107.2600,97.3200
107.2600,97.4000
107.3200,97.4300
107.4000,97.4200
107.4700,97.3900
107.5400,97.3400
107.5900,97.2800
107.6200,97.2100
107.6300,97.1300
107.6300,97.0500
107.6000,96.9600
107.5400,96.9000
107.4800,96.8500
107.4100,96.8100
107.3300,96.8000
107.2500,96.8000
107.1700,96.8200
107.1100,96.8700
107.0500,96.8800
106.9800,96.8400
106.9000,96.8200
106.8200,96.8200
106.7400,96.8300
106.6200,96.5300
107.5400,96.2900
107.6200,96.2700
107.6300,96.1900
107.6300,96.1100
107.6200,96.0400
106.6200,95.7900
106.7100,95.5200
106.7800,95.5500
106.8700,95.5600
106.9000,95.4900
106.9000,95.4200
106.8600,95.3600
106.7800,95.3400
106.7500,95.2700
106.7600,95.1900
106.8200,95.1500
106.9100,95.1400
106.9700,95.1800
107.0000,95.2500
107.0500,95.3000
107.1200,95.3000
107.1800,95.2700
107.2000,95.1900
107.2500,95.1400
107.3400,95.1400
107.4100,95.1700
107.4400,95.2400
107.4200,95.3200
107.3700,95.3700
107.2900,95.3800
107.2600,95.4400
107.2600,95.5200
107.3000,95.5700
107.3800,95.5600
107.4600,95.5400
107.5200,95.4900
107.5800,95.4300
107.6100,95.3600
107.6300,95.2900
107.6300,95.1300
107.6100,95.1100
107.5500,95.0500
107.4900,95.0000
107.4300,94.9600
107.3500,94.9400
107.2700,94.9400
107.1900,94.9500
107.0600,95.0300
106.9900,94.9800
106.9200,94.9600
106.8400,94.9500
106.7600,94.9700
106.6900,95.0000
106.6300,95.0500
106.5900,95.1100
106.5600,95.1800
106.3100,95.1800
106.3100,92.0400
106.3500,92.0000
107.8600,92.0000
Z" /> 
</g>
<g style="fill:none; 
stroke:#000000; stroke-width:0.2000; stroke-opacity:1; 
stroke-linecap:round; stroke-linejoin:round;">
<path d="M103.7000 102.6000
L103.7000 103.5000
" />
<path d="M103.7000 103.5000
L102.7000 103.5000
" />
<path d="M103.7000 100.5000
L103.7000 101.4000
" />
<path d="M102.7000 100.5000
L103.7000 100.5000
" />
<path style="fill:#000000; fill-opacity:1.0000; 
stroke:#000000; stroke-width:0.0100; stroke-opacity:1; 
stroke-linecap:round; stroke-linejoin:round;fill-rule:evenodd;"
d="M 109.8600,95.1200
109.9000,95.1300
109.9500,95.1800
109.9700,95.2600
109.9700,95.3400
109.9600,95.4100
109.3200,95.4100
109.2900,95.3600
109.2900,95.2800
109.3100,95.1900
109.3500,95.1400
109.4000,95.1200
109.4700,95.1100
109.5600,95.1100
109.6800,95.1100
109.7800,95.1100
Z" /> 
<path style="fill:#000000; fill-opacity:1.0000; 
stroke:#000000; stroke-width:0.0100; stroke-opacity:1; 
stroke-linecap:round; stroke-linejoin:round;fill-rule:evenodd;"
d="M 110.4500,92.0500
110.4500,98.0100
110.4200,98.0700
108.9100,98.0700
108.8500,98.0500
108.8500,97.7300
108.8500,97.6700
108.8500,97.1100
109.1000,97.1100
109.1000,97.2000
109.1100,97.2800
109.1400,97.3500
109.1800,97.4200
109.2400,97.4700
109.3000,97.5100
109.3800,97.5400
109.4500,97.5500
109.5200,97.5500
109.6100,97.5500
109.7100,97.5500
109.7900,97.5500
109.8600,97.5400
109.9300,97.5200
110.0000,97.4900
110.0700,97.4400
110.1100,97.3800
110.1400,97.3100
110.1600,97.2300
110.1700,97.1300
110.1600,97.0500
110.1300,96.9800
110.0900,96.9100
110.0400,96.8600
109.9700,96.8200
109.9000,96.8000
109.8100,96.7900
109.5700,96.7900
109.5400,96.8500
109.5400,97.0900
109.5400,97.1700
109.6200,97.1800
109.7000,97.1800
109.7300,97.1200
109.7400,97.0500
109.8300,97.0500
109.9100,97.0700
109.9600,97.1200
109.9700,97.2000
109.9500,97.2800
109.9000,97.3300
109.8600,97.3400
109.7800,97.3500
109.6800,97.3500
109.5600,97.3500
109.4600,97.3500
109.4000,97.3400
109.3500,97.3200
109.3100,97.2600
109.3000,97.1700
109.3100,97.0900
109.3600,97.0300
109.4300,96.9900
109.4300,96.8400
109.3800,96.7900
109.3000,96.8000
109.2400,96.8400
109.1800,96.9000
109.1400,96.9600
109.1100,97.0300
109.1000,97.1100
108.8500,97.1100
108.8500,95.9200
109.1000,95.9200
109.1000,96.0000
109.1400,96.0400
109.6200,96.0400
109.7000,96.0500
109.6300,96.0800
109.1100,96.2800
109.1000,96.3600
109.1000,96.5200
109.1600,96.5500
110.1100,96.5500
110.1700,96.5100
110.1700,96.4300
110.1700,96.3700
110.0900,96.3500
109.6200,96.3500
109.6600,96.3100
110.1100,96.1400
110.1600,96.1000
110.1700,96.0100
110.1700,95.9300
110.1500,95.8600
110.0800,95.8500
109.1200,95.8500
109.1000,95.9200
108.8500,95.9200
108.8500,95.2300
109.1000,95.2300
109.1000,95.3200
109.1000,95.5600
109.1400,95.6100
110.0900,95.6100
110.1600,95.5900
110.1700,95.5200
110.1700,95.2800
110.1700,95.2500
110.1500,95.1700
110.1200,95.1000
110.0800,95.0300
110.0200,94.9800
109.9600,94.9400
109.9000,94.9200
109.8300,94.9100
109.7400,94.9100
109.6400,94.9000
109.5400,94.9000
109.4500,94.9100
109.3700,94.9200
109.3100,94.9400
109.2500,94.9700
109.1900,95.0200
109.1500,95.0900
109.1200,95.1500
109.1000,95.2300
108.8500,95.2300
108.8500,92.0300
108.9100,92.0000
110.4200,92.0000
Z" /> 
</g>
<g style="fill:none; 
stroke:#000000; stroke-width:0.2000; stroke-opacity:1; 
stroke-linecap:round; stroke-linejoin:round;">
<circle cx="99.1000" cy="105.8000" r="0.1500" /> 
<path style="fill:#000000; fill-opacity:1.0000; stroke:none;fill-rule:evenodd;"
d="M 106.5343,118.6587
106.5473,118.6685
106.5562,118.6792
106.5710,118.7000
106.5908,118.7294
106.6149,118.7661
106.6424,118.8088
106.6725,118.8562
106.7044,118.9068
106.7372,118.9594
106.7701,119.0127
106.8023,119.0652
106.8329,119.1156
106.8611,119.1627
106.8861,119.2050
106.9071,119.2412
106.9232,119.2701
106.9337,119.2901
106.9376,119.3001
106.9376,119.3003
106.9314,119.3315
106.9143,119.3573
106.9040,119.3658
106.8955,119.3703
106.8837,119.3737
106.8665,119.3761
106.8418,119.3779
106.8075,119.3792
106.7649,119.3801
106.6436,119.3824
106.6436,119.9425
106.6436,120.0287
106.6437,120.1108
106.6439,120.1879
106.6441,120.2589
106.6444,120.3228
106.6447,120.3786
106.6450,120.4254
106.6454,120.4620
106.6459,120.4874
106.6463,120.5008
106.6465,120.5026
106.6540,120.4991
106.6713,120.4894
106.6968,120.4745
106.7288,120.4555
106.7657,120.4333
106.8057,120.4091
106.8472,120.3837
106.8884,120.3584
106.9277,120.3340
106.9634,120.3117
106.9938,120.2925
107.0173,120.2774
107.0320,120.2674
107.0359,120.2644
107.0618,120.2312
107.0769,120.1899
107.0810,120.1487
107.0812,120.1060
107.0326,120.1060
107.0067,120.1056
106.9898,120.1033
106.9776,120.0977
106.9654,120.0873
106.9608,120.0828
106.9376,120.0595
106.9376,119.5713
106.9608,119.5481
106.9841,119.5248
107.2245,119.5248
107.2908,119.5249
107.3448,119.5251
107.3880,119.5257
107.4217,119.5269
107.4474,119.5286
107.4664,119.5312
107.4803,119.5346
107.4903,119.5392
107.4980,119.5451
107.5047,119.5523
107.5066,119.5547
107.5097,119.5596
107.5123,119.5666
107.5142,119.5772
107.5158,119.5927
107.5169,119.6144
107.5177,119.6439
107.5182,119.6824
107.5184,119.7314
107.5186,119.7922
107.5186,119.8166
107.5187,120.0639
107.4977,120.0850
107.4858,120.0959
107.4745,120.1022
107.4594,120.1051
107.4365,120.1060
107.4259,120.1060
107.3752,120.1060
107.3752,120.1596
107.3685,120.2358
107.3488,120.3085
107.3166,120.3766
107.2723,120.4391
107.2454,120.4682
107.2321,120.4810
107.2182,120.4934
107.2024,120.5061
107.1835,120.5200
107.1604,120.5359
107.1318,120.5545
107.0966,120.5767
107.0534,120.6033
107.0013,120.6349
106.9389,120.6725
106.9205,120.6836
106.6470,120.8478
106.6434,121.4458
106.6879,121.4739
106.7408,121.5144
106.7864,121.5638
106.8228,121.6194
106.8482,121.6787
106.8557,121.7066
106.8608,121.7449
106.8617,121.7897
106.8586,121.8360
106.8521,121.8789
106.8428,121.9117
106.8122,121.9726
106.7708,122.0275
106.7204,122.0744
106.6632,122.1115
106.6194,122.1307
106.5830,122.1401
106.5388,122.1460
106.4921,122.1483
106.4481,122.1466
106.4135,122.1410
106.3493,122.1178
106.2907,122.0830
106.2390,122.0382
106.1960,121.9847
106.1632,121.9242
106.1486,121.8841
106.1417,121.8491
106.1384,121.8062
106.1386,121.7609
106.1425,121.7187
106.1476,121.6931
106.1708,121.6313
106.2059,121.5735
106.2511,121.5218
106.3046,121.4788
106.3120,121.4739
106.3564,121.4459
106.3564,121.2902
106.1325,121.1655
106.0805,121.1364
106.0311,121.1085
105.9858,121.0827
105.9463,121.0598
105.9141,121.0409
105.8907,121.0268
105.8778,121.0183
105.8276,120.9748
105.7828,120.9226
105.7461,120.8653
105.7202,120.8066
105.7193,120.8039
105.7136,120.7844
105.7094,120.7637
105.7063,120.7392
105.7041,120.7082
105.7025,120.6678
105.7017,120.6374
105.6987,120.5159
105.6772,120.5048
105.6185,120.4670
105.5692,120.4200
105.5301,120.3649
105.5020,120.3031
105.4855,120.2359
105.4813,120.1781
105.4871,120.1088
105.5045,120.0463
105.5340,119.9890
105.5763,119.9359
105.5804,119.9316
105.6329,119.8850
105.6883,119.8513
105.7481,119.8298
105.8139,119.8198
105.8436,119.8188
105.9125,119.8242
105.9746,119.8408
106.0316,119.8694
106.0852,119.9105
106.1069,119.9316
106.1502,119.9845
106.1808,120.0414
106.1992,120.1035
106.2059,120.1721
106.2059,120.1781
106.1996,120.2492
106.1808,120.3156
106.1504,120.3763
106.1089,120.4300
106.0572,120.4756
106.0085,120.5056
105.9853,120.5176
105.9890,120.6075
105.9917,120.6544
105.9960,120.6903
106.0024,120.7176
106.0119,120.7389
106.0251,120.7568
106.0343,120.7662
106.0447,120.7739
106.0646,120.7866
106.0920,120.8034
106.1249,120.8230
106.1613,120.8443
106.1993,120.8662
106.2370,120.8875
106.2722,120.9072
106.3032,120.9241
106.3279,120.9371
106.3442,120.9450
106.3500,120.9470
106.3510,120.9402
106.3519,120.9202
106.3528,120.8874
106.3536,120.8423
106.3543,120.7852
106.3549,120.7166
106.3554,120.6370
106.3558,120.5469
106.3561,120.4465
106.3563,120.3364
106.3564,120.2171
106.3564,120.1647
106.3564,119.3824
106.2351,119.3801
106.1899,119.3791
106.1563,119.3778
106.1321,119.3760
106.1153,119.3735
106.1038,119.3700
106.0960,119.3658
106.0747,119.3435
106.0636,119.3141
106.0624,119.3003
106.0660,119.2909
106.0761,119.2713
106.0920,119.2429
106.1127,119.2070
106.1375,119.1650
106.1656,119.1181
106.1961,119.0678
106.2283,119.0154
106.2611,118.9621
106.2939,118.9095
106.3259,118.8587
106.3561,118.8111
106.3838,118.7682
106.4081,118.7311
106.4282,118.7013
106.4432,118.6801
106.4524,118.6688
106.4527,118.6685
106.4786,118.6526
106.5068,118.6493
Z" /> 
<path style="fill:#000000; fill-opacity:1.0000; stroke:none;fill-rule:evenodd;"
d="M 93.4368,112.6659
93.5838,112.6785
93.7147,112.7025
93.8410,112.7405
93.9745,112.7951
94.0743,112.8426
94.3024,112.9770
94.5088,113.1422
94.6900,113.3341
94.8427,113.5485
94.9633,113.7812
95.0479,114.0258
95.0759,114.1676
95.0937,114.3323
95.1004,114.5048
95.0957,114.6703
95.0790,114.8137
95.0776,114.8214
95.0069,115.0904
94.9005,115.3412
94.7585,115.5735
94.7449,115.5924
94.6964,115.6531
94.6280,115.7317
94.5462,115.8215
94.4574,115.9157
94.3681,116.0076
94.2849,116.0904
94.2140,116.1574
94.1621,116.2018
94.1566,116.2060
94.0678,116.2512
94.0010,116.2592
93.9780,116.2620
93.8957,116.2376
93.8832,116.2299
93.8482,116.2023
93.7935,116.1539
93.7274,116.0924
93.6796,116.0464
93.5257,115.8957
93.4088,116.0006
93.1883,116.1732
92.9532,116.3097
92.7065,116.4100
92.4514,116.4733
92.1910,116.4995
92.1167,116.4962
91.9284,116.4879
91.6667,116.4381
91.4091,116.3498
91.3056,116.3024
91.0871,116.1733
90.8905,116.0140
90.7180,115.8288
90.5718,115.6221
90.4540,115.3982
90.3667,115.1612
90.3122,114.9155
90.2956,114.7039
90.6005,114.7039
90.6099,114.8274
90.6613,115.0790
90.7470,115.3107
90.8656,115.5209
91.0157,115.7076
91.1956,115.8691
91.4039,116.0036
91.6391,116.1092
91.6772,116.1226
91.8026,116.1539
91.9535,116.1736
92.1167,116.1814
92.2791,116.1770
92.4278,116.1599
92.4977,116.1453
92.6119,116.1139
92.7143,116.0790
92.8097,116.0373
92.9028,115.9856
92.9984,115.9207
93.1014,115.8392
93.2164,115.7378
93.3484,115.6134
93.5019,115.4626
93.5142,115.4503
93.6488,115.3154
93.7576,115.2038
93.8439,115.1115
93.9112,115.0341
93.9628,114.9677
94.0021,114.9079
94.0324,114.8506
94.0572,114.7916
94.0652,114.7699
94.0892,114.6691
94.1011,114.5463
94.1007,114.4176
94.0876,114.2992
94.0746,114.2437
94.0104,114.0933
93.9137,113.9530
93.7918,113.8309
93.6522,113.7348
93.5590,113.6915
93.3934,113.6488
93.2180,113.6397
93.0433,113.6636
92.8798,113.7196
92.8241,113.7484
92.7846,113.7769
92.7219,113.8296
92.6407,113.9021
92.5459,113.9898
92.4424,114.0885
92.3439,114.1850
92.2287,114.2994
92.1389,114.3896
92.0715,114.4592
92.0232,114.5120
91.9909,114.5518
91.9714,114.5824
91.9614,114.6076
91.9580,114.6311
91.9577,114.6445
91.9672,114.7093
92.0019,114.7643
92.0188,114.7822
92.0642,114.8214
92.1045,114.8352
92.1524,114.8316
92.1781,114.8242
92.2088,114.8080
92.2479,114.7800
92.2991,114.7370
92.3659,114.6761
92.4519,114.5942
92.5604,114.4882
92.6280,114.4215
92.7524,114.2993
92.8525,114.2028
92.9316,114.1291
92.9935,114.0751
93.0415,114.0377
93.0791,114.0139
93.1100,114.0006
93.1136,113.9995
93.2418,113.9777
93.3595,113.9915
93.4722,114.0422
93.5741,114.1208
93.6764,114.2351
93.7397,114.3547
93.7638,114.4784
93.7482,114.6050
93.7215,114.6778
93.6950,114.7187
93.6439,114.7823
93.5727,114.8638
93.4863,114.9583
93.3891,115.0611
93.2859,115.1674
93.1813,115.2723
93.0798,115.3712
92.9862,115.4591
92.9050,115.5312
92.8673,115.5625
92.6860,115.6835
92.4911,115.7670
92.2848,115.8124
92.1390,115.8212
91.9262,115.8021
91.7266,115.7477
91.5434,115.6613
91.3798,115.5460
91.2392,115.4051
91.1247,115.2418
91.0396,115.0594
90.9872,114.8609
90.9707,114.6679
90.9730,114.6168
91.2776,114.6168
91.2888,114.7912
91.3348,114.9603
91.4138,115.1170
91.5235,115.2541
91.5506,115.2801
91.7022,115.3936
91.8657,115.4694
92.0383,115.5071
92.2169,115.5063
92.3987,115.4665
92.5171,115.4196
92.5614,115.3969
92.6060,115.3692
92.6551,115.3327
92.7131,115.2837
92.7843,115.2185
92.8729,115.1334
92.9833,115.0246
93.0357,114.9726
93.1504,114.8580
93.2399,114.7679
93.3072,114.6985
93.3555,114.6457
93.3880,114.6059
93.4077,114.5752
93.4179,114.5497
93.4217,114.5256
93.4223,114.5013
93.4065,114.4148
93.3618,114.3533
93.2918,114.3208
93.2496,114.3167
93.2263,114.3183
93.2025,114.3249
93.1746,114.3398
93.1388,114.3659
93.0915,114.4064
93.0290,114.4642
92.9477,114.5426
92.8438,114.6445
92.7722,114.7151
92.6441,114.8409
92.5400,114.9410
92.4555,115.0183
92.3864,115.0757
92.3286,115.1161
92.2778,115.1423
92.2297,115.1573
92.1802,115.1641
92.1250,115.1654
92.1170,115.1653
92.0077,115.1473
91.9017,115.0946
91.7950,115.0051
91.7632,114.9717
91.6765,114.8538
91.6293,114.7336
91.6218,114.6125
91.6541,114.4917
91.6978,114.4119
91.7278,114.3741
91.7823,114.3131
91.8567,114.2337
91.9466,114.1405
92.0476,114.0382
92.1533,113.9333
92.2798,113.8098
92.3828,113.7115
92.4666,113.6347
92.5355,113.5756
92.5937,113.5305
92.6456,113.4958
92.6918,113.4695
92.8470,113.3988
92.9972,113.3548
93.1585,113.3336
93.2618,113.3302
93.4705,113.3479
93.6658,113.4009
93.8450,113.4855
94.0052,113.5983
94.1436,113.7358
94.2573,113.8945
94.3436,114.0708
94.3995,114.2613
94.4224,114.4625
94.4093,114.6708
94.3967,114.7401
94.3625,114.8686
94.3150,114.9855
94.2492,115.0989
94.1604,115.2169
94.0439,115.3475
94.0192,115.3734
93.9251,115.4733
93.8587,115.5511
93.8179,115.6123
93.8010,115.6622
93.8061,115.7059
93.8313,115.7489
93.8717,115.7934
93.9178,115.8353
93.9592,115.8591
94.0010,115.8628
94.0484,115.8444
94.1065,115.8018
94.1806,115.7331
94.2759,115.6362
94.2773,115.6348
94.3970,115.5057
94.4909,115.3925
94.5651,115.2865
94.6256,115.1790
94.6784,115.0613
94.6801,115.0573
94.7270,114.9278
94.7580,114.8059
94.7750,114.6785
94.7802,114.5326
94.7787,114.4371
94.7740,114.3203
94.7662,114.2303
94.7533,114.1539
94.7332,114.0779
94.7115,114.0112
94.6120,113.7803
94.4807,113.5726
94.3201,113.3903
94.1327,113.2360
93.9210,113.1119
93.6875,113.0204
93.6519,113.0100
93.5556,112.9867
93.4592,112.9727
93.3476,112.9662
93.2618,112.9651
93.0842,112.9714
92.9300,112.9925
92.7837,113.0321
92.6303,113.0937
92.5596,113.1272
92.5061,113.1539
92.4593,113.1793
92.4151,113.2068
92.3693,113.2400
92.3179,113.2824
92.2566,113.3373
92.1814,113.4084
92.0881,113.4991
91.9726,113.6128
91.9050,113.6796
91.7628,113.8211
91.6468,113.9389
91.5537,114.0370
91.4807,114.1193
91.4245,114.1896
91.3822,114.2519
91.3506,114.3101
91.3267,114.3680
91.3074,114.4297
91.3035,114.4442
91.2776,114.6168
90.9730,114.6168
90.9784,114.4991
91.0047,114.3483
91.0530,114.2083
91.1264,114.0720
91.2284,113.9320
91.3620,113.7812
91.3807,113.7617
91.4759,113.6598
91.5444,113.5798
91.5849,113.5232
91.5965,113.4939
91.5807,113.4344
91.5399,113.3746
91.4841,113.3232
91.4231,113.2891
91.3669,113.2808
91.3568,113.2832
91.3246,113.3040
91.2725,113.3498
91.2058,113.4144
91.1303,113.4919
91.0516,113.5764
90.9751,113.6617
90.9065,113.7420
90.8514,113.8113
90.8156,113.8632
90.7207,114.0566
90.6517,114.2685
90.6109,114.4879
90.6005,114.7039
90.2956,114.7039
90.2926,114.6653
90.3101,114.4150
90.3208,114.3511
90.3636,114.1607
90.4180,113.9898
90.4880,113.8312
90.5775,113.6778
90.6906,113.5224
90.8312,113.3579
90.9431,113.2388
91.0320,113.1482
91.1150,113.0663
91.1869,112.9980
91.2422,112.9483
91.2759,112.9223
91.2782,112.9210
91.3377,112.9010
91.4052,112.8923
91.4076,112.8923
91.4413,112.8950
91.4736,112.9062
91.5113,112.9305
91.5607,112.9724
91.6287,113.0367
91.6657,113.0728
91.7364,113.1407
91.7977,113.1970
91.8436,113.2362
91.8681,113.2531
91.8695,113.2534
91.8927,113.2400
91.9339,113.2050
91.9786,113.1615
92.0696,113.0798
92.1857,112.9929
92.3139,112.9093
92.4417,112.8373
92.5334,112.7945
92.6627,112.7441
92.7769,112.7080
92.8874,112.6839
93.0061,112.6696
93.1447,112.6632
93.2618,112.6621
Z" /> 
<path style="fill:#000000; fill-opacity:1.0000; stroke:none;fill-rule:evenodd;"
d="M 92.9215,101.4965
93.1291,101.4968
93.3026,101.4974
93.4450,101.4984
93.5595,101.4999
93.6491,101.5020
93.7167,101.5047
93.7654,101.5082
93.7983,101.5125
93.8183,101.5176
93.8286,101.5238
93.8314,101.5281
93.8427,101.6097
93.8187,101.6889
93.8035,101.7116
93.7767,101.7500
93.7666,101.7844
93.7735,101.8265
93.7982,101.8878
93.8133,101.9207
93.8511,102.0405
93.8632,102.1722
93.8486,102.2985
93.8360,102.3414
93.7647,102.4836
93.6625,102.6016
93.5328,102.6919
93.4360,102.7341
93.3579,102.7522
93.2505,102.7648
93.1245,102.7718
93.0197,102.7729
92.9902,102.7733
92.8583,102.7691
92.7392,102.7595
92.6434,102.7443
92.6043,102.7335
92.4668,102.6672
92.3529,102.5755
92.2654,102.4639
92.2068,102.3380
92.1801,102.2034
92.1833,102.1464
92.4675,102.1464
92.4809,102.2247
92.5127,102.3160
92.5560,102.3855
92.6159,102.4358
92.6975,102.4697
92.8061,102.4896
92.9467,102.4982
93.0197,102.4991
93.1706,102.4959
93.2878,102.4838
93.3770,102.4601
93.4443,102.4218
93.4954,102.3663
93.5362,102.2907
93.5550,102.2435
93.5718,102.1538
93.5669,102.0517
93.5417,101.9576
93.5326,101.9380
93.4771,101.8635
93.3983,101.7977
93.3623,101.7765
93.3157,101.7628
93.2393,101.7516
93.1437,101.7435
93.0390,101.7389
92.9358,101.7384
92.8444,101.7427
92.8135,101.7459
92.6917,101.7787
92.5924,101.8405
92.5195,101.9260
92.4766,102.0298
92.4675,102.1464
92.1833,102.1464
92.1878,102.0657
92.2219,101.9542
92.2446,101.8987
92.2552,101.8570
92.2496,101.8271
92.2235,101.8067
92.1729,101.7936
92.0933,101.7855
91.9806,101.7802
91.8853,101.7773
91.5464,101.7672
91.5404,101.6318
91.5345,101.4964
92.6769,101.4964
Z" /> 
<path style="fill:#000000; fill-opacity:1.0000; stroke:none;fill-rule:evenodd;"
d="M 92.9237,108.3383
93.1269,108.3386
93.2963,108.3392
93.4349,108.3403
93.5460,108.3420
93.6328,108.3442
93.6982,108.3472
93.7456,108.3510
93.7779,108.3556
93.7985,108.3612
93.8104,108.3679
93.8121,108.3694
93.8336,108.4132
93.8428,108.4777
93.8393,108.5455
93.8225,108.5990
93.8185,108.6052
93.8108,108.6125
93.7973,108.6187
93.7748,108.6238
93.7402,108.6278
93.6903,108.6310
93.6221,108.6333
93.5324,108.6349
93.4179,108.6358
93.2757,108.6360
93.1026,108.6358
92.8954,108.6351
92.6699,108.6341
91.5464,108.6288
91.5403,108.5002
91.5401,108.4171
91.5494,108.3691
91.5604,108.3551
91.5848,108.3520
91.6457,108.3490
91.7392,108.3463
91.8615,108.3439
92.0090,108.3419
92.1779,108.3402
92.3644,108.3390
92.5648,108.3384
92.6835,108.3382
Z" /> 
<path style="fill:#000000; fill-opacity:1.0000; stroke:none;fill-rule:evenodd;"
d="M 93.1358,108.8096
93.2287,108.8110
93.2970,108.8144
93.3484,108.8209
93.3908,108.8314
93.4319,108.8469
93.4774,108.8673
93.6065,108.9460
93.7160,109.0506
93.7967,109.1720
93.8069,109.1937
93.8334,109.2801
93.8505,109.3889
93.8567,109.5033
93.8508,109.6062
93.8431,109.6473
93.7858,109.7951
93.6946,109.9230
93.5723,110.0277
93.4838,110.0787
93.4420,110.0985
93.4046,110.1129
93.3641,110.1227
93.3132,110.1287
93.2446,110.1320
93.1507,110.1333
93.0243,110.1336
93.0239,110.1336
93.0210,110.1336
92.8932,110.1333
92.7982,110.1319
92.7284,110.1285
92.6764,110.1224
92.6348,110.1126
92.5962,110.0983
92.5586,110.0814
92.4257,110.0043
92.3235,109.9097
92.2484,109.7989
92.2183,109.7378
92.1995,109.6795
92.1886,109.6099
92.1825,109.5147
92.1823,109.5116
92.1814,109.4694
92.4622,109.4694
92.4773,109.5808
92.4903,109.6173
92.5370,109.7062
92.5959,109.7700
92.6741,109.8129
92.7788,109.8392
92.8806,109.8507
93.0239,109.8558
93.1587,109.8499
93.2769,109.8339
93.3703,109.8088
93.4212,109.7832
93.4947,109.7077
93.5428,109.6095
93.5636,109.4986
93.5555,109.3845
93.5169,109.2770
93.5106,109.2658
93.4706,109.2072
93.4245,109.1640
93.3658,109.1340
93.2881,109.1149
93.1849,109.1046
93.0495,109.1009
93.0173,109.1008
92.9113,109.1021
92.8154,109.1062
92.7390,109.1124
92.6915,109.1201
92.6863,109.1217
92.5944,109.1766
92.5242,109.2586
92.4790,109.3591
92.4622,109.4694
92.1814,109.4694
92.1802,109.4117
92.1852,109.3367
92.1989,109.2719
92.2167,109.2191
92.2863,109.0832
92.3840,108.9736
92.5134,108.8864
92.5349,108.8754
92.6691,108.8094
93.0106,108.8094
Z" /> 
<path style="fill:#000000; fill-opacity:1.0000; stroke:none;fill-rule:evenodd;"
d="M 92.4215,104.2509
92.4697,104.2730
92.4933,104.3180
92.4995,104.3912
92.5110,104.5251
92.5470,104.6337
92.6056,104.7202
92.6455,104.7630
92.6846,104.7965
92.7284,104.8219
92.7824,104.8403
92.8519,104.8528
92.9423,104.8606
93.0590,104.8647
93.2074,104.8663
93.3055,104.8665
93.4662,104.8669
93.5913,104.8685
93.6851,104.8724
93.7523,104.8801
93.7971,104.8925
93.8241,104.9111
93.8378,104.9370
93.8426,104.9715
93.8430,105.0139
93.8378,105.0757
93.8258,105.1248
93.8219,105.1328
93.8144,105.1417
93.8006,105.1489
93.7769,105.1547
93.7393,105.1592
93.6843,105.1625
93.6080,105.1649
93.5066,105.1665
93.3764,105.1674
93.2137,105.1678
93.0147,105.1679
93.0121,105.1679
92.8098,105.1680
92.6440,105.1680
92.5110,105.1671
92.4074,105.1650
92.3294,105.1609
92.2734,105.1544
92.2359,105.1448
92.2132,105.1316
92.2017,105.1142
92.1979,105.0920
92.1979,105.0645
92.1984,105.0383
92.2068,104.9804
92.2375,104.9443
92.2986,104.9213
92.3138,104.9179
92.3617,104.8993
92.3764,104.8685
92.3581,104.8208
92.3295,104.7793
92.2656,104.6753
92.2254,104.5575
92.2069,104.4421
92.2034,104.3509
92.2177,104.2916
92.2539,104.2584
92.3158,104.2457
92.3416,104.2450
Z" /> 
<path style="fill:#000000; fill-opacity:1.0000; stroke:none;fill-rule:evenodd;"
d="M 93.1113,102.9509
93.1213,103.4525
93.1314,103.9541
93.2273,103.9492
93.3515,103.9263
93.4505,103.8733
93.5217,103.7927
93.5628,103.6869
93.5724,103.5930
93.5581,103.4652
93.5138,103.3635
93.4388,103.2866
93.4047,103.2650
93.3202,103.2178
93.3261,103.0844
93.3320,102.9509
93.4004,102.9565
93.4808,102.9764
93.5716,103.0193
93.6581,103.0769
93.7256,103.1407
93.7257,103.1409
93.8002,103.2607
93.8486,103.4036
93.8686,103.5607
93.8620,103.6972
93.8227,103.8467
93.7486,103.9807
93.6433,104.0937
93.5170,104.1774
93.4149,104.2154
93.2835,104.2426
93.1326,104.2578
92.9717,104.2598
92.9081,104.2568
92.8614,104.2521
92.7632,104.2424
92.6475,104.2190
92.5505,104.1836
92.4618,104.1332
92.4524,104.1268
92.3425,104.0283
92.2605,103.9074
92.2070,103.7710
92.1823,103.6258
92.1842,103.5671
92.4800,103.5671
92.4861,103.6664
92.5078,103.7527
92.5313,103.7967
92.6112,103.8791
92.7041,103.9260
92.7684,103.9389
92.8614,103.9494
92.8505,103.2118
92.7732,103.2164
92.6714,103.2416
92.5830,103.3002
92.5179,103.3853
92.5167,103.3876
92.4901,103.4694
92.4800,103.5671
92.1842,103.5671
92.1870,103.4786
92.2214,103.3363
92.2860,103.2056
92.3812,103.0932
92.3840,103.0907
92.4656,103.0273
92.5515,102.9835
92.6505,102.9571
92.7716,102.9453
92.9033,102.9452
Z" /> 
<path style="fill:#000000; fill-opacity:1.0000; stroke:none;fill-rule:evenodd;"
d="M 93.4271,106.8764
93.5396,106.8774
93.6277,106.8790
93.6945,106.8814
93.7432,106.8846
93.7768,106.8887
93.7985,106.8939
93.8115,106.9002
93.8185,106.9070
93.8416,106.9695
93.8340,107.0413
93.8035,107.0995
93.7737,107.1459
93.7663,107.1898
93.7817,107.2440
93.8083,107.2990
93.8409,107.3923
93.8574,107.5061
93.8567,107.6242
93.8382,107.7301
93.8315,107.7506
93.7822,107.8435
93.7060,107.9381
93.6142,108.0226
93.5177,108.0854
93.5130,108.0878
93.4057,108.1257
93.2707,108.1515
93.1186,108.1650
93.0307,108.1658
92.9599,108.1664
92.8053,108.1556
92.6653,108.1326
92.5505,108.0975
92.5284,108.0875
92.3978,108.0035
92.2961,107.8961
92.2253,107.7708
92.1877,107.6329
92.1862,107.5230
92.4683,107.5230
92.4872,107.6298
92.5346,107.7290
92.6111,107.8128
92.6235,107.8224
92.6918,107.8551
92.7891,107.8783
92.9053,107.8920
93.0307,107.8961
93.1552,107.8907
93.2689,107.8757
93.3620,107.8512
93.4173,107.8230
93.5069,107.7337
93.5603,107.6281
93.5764,107.5101
93.5603,107.4050
93.5281,107.3149
93.4845,107.2463
93.4243,107.1966
93.3424,107.1634
93.2335,107.1440
93.0926,107.1357
93.0210,107.1350
92.9026,107.1360
92.8158,107.1397
92.7523,107.1469
92.7036,107.1585
92.6679,107.1724
92.5778,107.2332
92.5142,107.3171
92.4775,107.4162
92.4683,107.5230
92.1862,107.5230
92.1857,107.4880
92.2203,107.3446
92.2411,107.2796
92.2517,107.2269
92.2510,107.2034
92.2400,107.1922
92.2134,107.1842
92.1657,107.1788
92.0916,107.1756
91.9857,107.1742
91.9132,107.1739
91.8013,107.1729
91.7026,107.1701
91.6245,107.1659
91.5744,107.1608
91.5604,107.1571
91.5448,107.1290
91.5391,107.0683
91.5403,107.0119
91.5464,106.8833
92.6699,106.8781
92.9115,106.8770
93.1162,106.8764
93.2870,106.8761
Z" /> 
<path style="fill:#000000; fill-opacity:1.0000; stroke:none;fill-rule:evenodd;"
d="M 93.3294,110.2789
93.4485,110.3132
93.4671,110.3216
93.5988,110.4069
93.7067,110.5216
93.7878,110.6606
93.8389,110.8186
93.8558,110.9520
93.8562,111.0600
93.8480,111.1561
93.8375,111.2084
93.7739,111.3648
93.6806,111.4975
93.5617,111.6031
93.4210,111.6781
93.2626,111.7191
93.2390,111.7220
93.1541,111.7261
93.1008,111.7132
93.0723,111.6781
93.0618,111.6156
93.0611,111.5844
93.0664,111.4975
93.0852,111.4434
93.1218,111.4155
93.1805,111.4076
93.1809,111.4076
93.2975,111.3913
93.3939,111.3414
93.4724,111.2563
93.5070,111.1977
93.5361,111.1093
93.5479,111.0023
93.5420,110.8946
93.5186,110.8057
93.4557,110.7054
93.3682,110.6309
93.2640,110.5863
93.1509,110.5758
93.0982,110.5834
93.0243,110.6059
92.9644,110.6397
92.9150,110.6903
92.8724,110.7629
92.8330,110.8629
92.7930,110.9956
92.7788,111.0486
92.7370,111.1927
92.6941,111.3050
92.6462,111.3942
92.5889,111.4684
92.5562,111.5019
92.4454,111.5817
92.3141,111.6334
92.1717,111.6554
92.0278,111.6461
91.9019,111.6085
91.7928,111.5422
91.6933,111.4463
91.6130,111.3311
91.5756,111.2511
91.5451,111.1279
91.5362,110.9887
91.5484,110.8484
91.5808,110.7217
91.6029,110.6709
91.6924,110.5349
91.8036,110.4326
91.9364,110.3642
92.0905,110.3297
92.0926,110.3295
92.1743,110.3280
92.2252,110.3475
92.2512,110.3930
92.2586,110.4696
92.2586,110.4698
92.2521,110.5474
92.2274,110.5951
92.1768,110.6218
92.1158,110.6336
92.0131,110.6656
91.9315,110.7286
91.8742,110.8180
91.8443,110.9289
91.8444,111.0528
91.8734,111.1716
91.9281,111.2605
92.0069,111.3183
92.1082,111.3434
92.1718,111.3429
92.2542,111.3275
92.3213,111.2934
92.3767,111.2361
92.4237,111.1512
92.4658,111.0341
92.4974,110.9176
92.5548,110.7285
92.6258,110.5752
92.7122,110.4548
92.8160,110.3648
92.9360,110.3035
93.0576,110.2735
93.1939,110.2655
Z" /> 
<path style="fill:#000000; fill-opacity:1.0000; stroke:none;fill-rule:evenodd;"
d="M 93.0408,105.3717
93.0746,105.3874
93.0975,105.4191
93.1118,105.4708
93.1197,105.5470
93.1233,105.6518
93.1249,105.7895
93.1260,105.9058
93.1314,106.4018
93.2216,106.3960
93.3492,106.3722
93.4490,106.3197
93.5200,106.2396
93.5611,106.1331
93.5717,106.0319
93.5613,105.9128
93.5257,105.8209
93.4615,105.7496
93.4053,105.7127
93.3202,105.6655
93.3261,105.5321
93.3320,105.3987
93.4004,105.4042
93.4808,105.4241
93.5716,105.4670
93.6581,105.5246
93.7256,105.5884
93.7257,105.5886
93.7996,105.7073
93.8480,105.8492
93.8687,106.0042
93.8622,106.1410
93.8474,106.2184
93.8260,106.2932
93.8176,106.3153
93.7675,106.4008
93.6923,106.4894
93.6039,106.5688
93.5161,106.6258
93.4100,106.6649
93.2749,106.6921
93.1204,106.7062
92.9560,106.7064
92.8423,106.6978
92.8001,106.6906
92.6705,106.6687
92.5306,106.6206
92.4175,106.5504
92.3264,106.4552
92.2545,106.3363
92.2221,106.2665
92.2024,106.2096
92.1926,106.1504
92.1894,106.0741
92.1894,106.0450
92.4788,106.0450
92.4968,106.1541
92.5378,106.2468
92.5477,106.2607
92.6285,106.3374
92.7261,106.3821
92.8001,106.3918
92.8614,106.3918
92.8559,106.0256
92.8505,105.6595
92.7732,105.6641
92.6714,105.6893
92.5830,105.7479
92.5179,105.8330
92.5167,105.8353
92.4851,105.9338
92.4788,106.0450
92.1894,106.0450
92.1893,106.0210
92.1993,105.8722
92.2298,105.7507
92.2846,105.6476
92.3671,105.5539
92.3823,105.5399
92.4626,105.4778
92.5497,105.4332
92.6531,105.4028
92.7823,105.3834
92.8524,105.3773
92.9319,105.3709
92.9940,105.3676
Z" /> 
<path style="fill:#000000; fill-opacity:1.0000; 
stroke:#000000; stroke-width:0.0100; stroke-opacity:1; 
stroke-linecap:round; stroke-linejoin:round;fill-rule:evenodd;"
d="M 111.1600,104.8200
111.1600,104.9200
111.0800,104.9500
110.1600,104.9500
110.2100,104.9900
111.1000,105.2200
111.1600,105.2800
111.1600,105.3800
111.0700,105.4100
110.5000,105.6400
110.5600,105.6600
111.0700,105.6600
111.1600,105.6900
111.1600,105.7900
111.0800,105.8300
109.8600,105.8300
109.7900,105.7800
109.8000,105.5700
109.8900,105.5400
110.3700,105.3500
110.4600,105.3100
110.3800,105.2700
109.9100,105.0800
109.8100,105.0500
109.7900,104.9600
109.7900,104.8600
109.8500,104.7900
111.0700,104.7900
Z" /> 
<path style="fill:#000000; fill-opacity:1.0000; 
stroke:#000000; stroke-width:0.0100; stroke-opacity:1; 
stroke-linecap:round; stroke-linejoin:round;fill-rule:evenodd;"
d="M 110.2800,107.3000
110.3700,107.3400
110.4500,107.3900
110.5100,107.4800
110.6000,107.5000
111.0600,107.3000
111.1600,107.3000
111.1600,107.4000
111.1200,107.4800
110.6500,107.6700
110.5600,107.7200
110.5600,107.8200
110.6200,107.8600
111.1300,107.8600
111.1600,107.9500
111.1600,107.9900
111.0800,108.0300
109.8600,108.0300
109.7900,107.9900
109.7900,107.5800
109.8500,107.4700
109.9800,107.5700
109.9700,107.6700
109.9700,107.7700
109.9700,107.8600
110.3800,107.8600
110.3900,107.7700
110.3900,107.6700
110.3900,107.6100
110.3200,107.5200
110.2400,107.4700
110.1600,107.4700
110.0700,107.5000
109.9900,107.5700
109.8500,107.4700
109.9200,107.3900
109.9800,107.3400
110.0700,107.3000
110.1700,107.2900
Z" /> 
<path style="fill:#000000; fill-opacity:1.0000; 
stroke:#000000; stroke-width:0.0100; stroke-opacity:1; 
stroke-linecap:round; stroke-linejoin:round;fill-rule:evenodd;"
d="M 111.1600,115.5100
111.1600,115.6100
111.1600,116.1100
111.0800,116.1500
109.8800,116.1500
109.7900,116.1200
109.7900,115.6100
109.8000,115.5100
109.8900,115.4900
109.9600,115.5400
109.9600,115.9400
110.0200,115.9800
110.3200,115.9800
110.3900,115.9500
110.3900,115.5400
110.4800,115.5100
110.5600,115.5500
110.5600,115.9500
110.6300,115.9800
110.9300,115.9800
111.0000,115.9500
111.0000,115.5400
111.0600,115.4900
Z" /> 
<path style="fill:#000000; fill-opacity:1.0000; 
stroke:#000000; stroke-width:0.0100; stroke-opacity:1; 
stroke-linecap:round; stroke-linejoin:round;fill-rule:evenodd;"
d="M 111.1600,117.6000
111.1600,117.7000
111.1000,117.7700
110.1400,118.1000
110.1900,118.1200
111.1000,118.1200
111.1600,118.1900
111.1500,118.2800
111.0500,118.2900
109.8400,118.2900
109.7900,118.2200
109.7900,118.1200
109.8600,118.0600
110.8100,117.7200
110.7700,117.7000
109.8600,117.7000
109.7900,117.6500
109.8000,117.5500
109.9000,117.5300
111.1100,117.5300
Z" /> 
<path style="fill:#000000; fill-opacity:1.0000; 
stroke:#000000; stroke-width:0.0100; stroke-opacity:1; 
stroke-linecap:round; stroke-linejoin:round;fill-rule:evenodd;"
d="M 110.8100,109.4800
110.9100,109.5100
110.9800,109.5400
111.0400,109.6100
111.1200,109.6900
111.1600,109.8000
111.1600,110.0000
111.1600,110.0100
111.0800,110.1200
111.0100,110.1900
110.9400,110.2300
110.8600,110.2700
110.7600,110.2900
110.6700,110.2900
110.5600,110.3000
110.4400,110.3000
110.3300,110.3000
110.2400,110.2900
110.1400,110.2800
110.0500,110.2500
109.9800,110.2100
109.9100,110.1500
109.8300,110.0600
109.8000,109.9600
109.9500,109.9500
110.0200,110.0400
110.0900,110.0900
110.1800,110.1100
110.2800,110.1200
110.3800,110.1200
110.5000,110.1300
110.6100,110.1200
110.7000,110.1200
110.8100,110.1000
110.8900,110.0800
110.9600,110.0100
111.0000,109.9100
111.0000,109.8100
110.9400,109.7300
110.8700,109.6800
110.7800,109.6500
110.6800,109.6400
110.4700,109.6400
110.2600,109.6400
110.1500,109.6500
110.0700,109.6900
110.0000,109.7500
109.9500,109.8400
109.9500,109.9400
109.7900,109.9600
109.7900,109.7500
109.8700,109.6500
109.9400,109.5800
110.0100,109.5300
110.0900,109.5000
110.1900,109.4800
110.2800,109.4700
110.3800,109.4700
110.5000,109.4700
110.6100,109.4700
110.7100,109.4700
Z" /> 
<path style="fill:#000000; fill-opacity:1.0000; 
stroke:#000000; stroke-width:0.0100; stroke-opacity:1; 
stroke-linecap:round; stroke-linejoin:round;fill-rule:evenodd;"
d="M 110.2800,101.4400
110.3700,101.4700
110.4500,101.5300
110.5100,101.6200
110.6000,101.6400
111.0600,101.4400
111.1600,101.4400
111.1600,101.5400
111.1200,101.6100
110.6500,101.8100
110.5600,101.8500
110.5600,101.9500
110.6200,102.0000
111.1300,102.0000
111.1600,102.0800
111.1600,102.1300
111.0800,102.1700
109.8600,102.1700
109.7900,102.1200
109.7900,101.7200
109.8500,101.6100
109.9800,101.7100
109.9700,101.8000
109.9700,101.9100
109.9700,102.0000
110.3800,102.0000
110.3900,101.9100
110.3900,101.8100
110.3900,101.7500
110.3200,101.6600
110.2400,101.6100
110.1600,101.6000
110.0700,101.6300
109.9900,101.7000
109.8500,101.6100
109.9200,101.5300
109.9800,101.4800
110.0700,101.4400
110.1700,101.4300
Z" /> 
<path style="fill:#000000; fill-opacity:1.0000; 
stroke:#000000; stroke-width:0.0100; stroke-opacity:1; 
stroke-linecap:round; stroke-linejoin:round;fill-rule:evenodd;"
d="M 110.7100,118.6000
110.8100,118.6100
110.9100,118.6300
110.9800,118.6700
111.0400,118.7300
111.1200,118.8200
111.1600,118.9200
111.1600,119.1200
111.1600,119.1400
111.0800,119.2400
111.0100,119.3100
110.9400,119.3600
110.8600,119.3900
110.7600,119.4100
110.6700,119.4200
110.5600,119.4200
110.4400,119.4200
110.3300,119.4200
110.2400,119.4200
110.1400,119.4000
110.0500,119.3700
109.9800,119.3400
109.9100,119.2800
109.8300,119.1900
109.8000,119.0800
109.9500,119.0700
110.0200,119.1600
110.0900,119.2100
110.1800,119.2300
110.2800,119.2400
110.3800,119.2500
110.5000,119.2500
110.6100,119.2500
110.7000,119.2400
110.8100,119.2300
110.8900,119.2000
110.9600,119.1400
111.0000,119.0400
111.0000,118.9300
110.9400,118.8600
110.8700,118.8000
110.7800,118.7700
110.6800,118.7700
110.4700,118.7600
110.2600,118.7700
110.1500,118.7800
110.0700,118.8100
110.0000,118.8700
109.9500,118.9700
109.9500,119.0700
109.7900,119.0800
109.7900,118.8800
109.8700,118.7800
109.9400,118.7000
110.0100,118.6500
110.0900,118.6200
110.1900,118.6000
110.2800,118.5900
110.3800,118.5900
110.5000,118.5900
110.6100,118.5900
Z" /> 
<path style="fill:#000000; fill-opacity:1.0000; 
stroke:#000000; stroke-width:0.0100; stroke-opacity:1; 
stroke-linecap:round; stroke-linejoin:round;fill-rule:evenodd;"
d="M 110.8200,119.7600
110.9100,119.7800
111.0000,119.8300
111.0900,119.9000
111.1600,119.9800
111.1600,120.2900
111.0900,120.3900
111.0200,120.4600
110.9500,120.5100
110.8700,120.5400
110.7600,120.5600
110.6800,120.5700
110.5800,120.5700
110.4600,120.5700
110.3400,120.5700
110.2500,120.5600
110.1600,120.5500
110.0600,120.5300
109.9800,120.5000
109.9200,120.4400
109.8400,120.3600
109.7900,120.2500
109.7900,120.0500
109.8000,119.9500
109.9000,119.8700
109.9900,119.8100
110.0700,119.7700
110.1600,119.7500
110.2400,119.7600
110.2500,119.8600
110.2000,119.9200
110.1100,119.9400
110.0200,119.9900
109.9500,120.0700
109.9500,120.1700
109.9900,120.2700
110.0600,120.3400
110.1300,120.3700
110.2400,120.3900
110.3300,120.3900
110.4400,120.4000
110.5500,120.4000
110.6600,120.3900
110.7500,120.3800
110.8500,120.3600
110.9200,120.3200
110.9900,120.2400
111.0000,120.1400
111.0000,120.0400
110.9100,119.9700
110.8200,119.9300
110.7300,119.9200
110.7100,119.8300
110.7400,119.7500
Z" /> 
<path style="fill:#000000; fill-opacity:1.0000; 
stroke:#000000; stroke-width:0.0100; stroke-opacity:1; 
stroke-linecap:round; stroke-linejoin:round;fill-rule:evenodd;"
d="M 110.9100,108.3700
110.9800,108.4100
111.0500,108.4700
111.1200,108.5500
111.1600,108.6600
111.1600,108.8700
111.0900,108.9700
111.0200,109.0500
110.9600,109.1000
110.8700,109.1300
110.7700,109.1500
110.6800,109.1600
110.5700,109.1600
110.4500,109.1600
110.3400,109.1600
110.2400,109.1500
110.1500,109.1400
110.0500,109.1200
109.9800,109.0900
109.9100,109.0200
109.8400,108.9400
109.7900,108.8300
109.7900,108.6200
109.8200,108.5200
109.9100,108.4400
110.0000,108.3800
110.0800,108.3500
110.1700,108.3400
110.1900,108.4300
110.1600,108.5100
110.0800,108.5300
109.9900,108.5900
109.9500,108.6900
109.9500,108.7900
110.0100,108.8900
110.0800,108.9500
110.1700,108.9700
110.2700,108.9800
110.3700,108.9900
110.4900,108.9900
110.6000,108.9900
110.6900,108.9800
110.8000,108.9700
110.8800,108.9400
110.9500,108.8800
111.0000,108.7800
111.0000,108.6700
110.9500,108.5900
110.8500,108.5400
110.7600,108.5100
110.6700,108.5100
110.5600,108.5100
110.5600,108.6000
110.5500,108.7100
110.4600,108.7200
110.4000,108.6600
110.4000,108.4600
110.4000,108.3600
110.5000,108.3400
110.7000,108.3400
110.8100,108.3400
Z" /> 
<path style="fill:#000000; fill-opacity:1.0000; 
stroke:#000000; stroke-width:0.0100; stroke-opacity:1; 
stroke-linecap:round; stroke-linejoin:round;fill-rule:evenodd;"
d="M 111.1600,103.4800
111.1600,103.5800
111.0800,103.6100
110.1600,103.6100
110.2100,103.6500
111.1000,103.8800
111.1600,103.9400
111.1600,104.0400
111.0700,104.0700
110.5000,104.3000
110.5600,104.3100
111.0700,104.3100
111.1600,104.3400
111.1600,104.4500
111.0800,104.4900
109.8600,104.4900
109.7900,104.4400
109.8000,104.2300
109.8900,104.1900
110.3700,104.0100
110.4600,103.9700
110.3800,103.9300
109.9100,103.7400
109.8100,103.7100
109.7900,103.6200
109.7900,103.5200
109.8500,103.4500
111.0700,103.4500
Z" /> 
<path style="fill:#000000; fill-opacity:1.0000; 
stroke:#000000; stroke-width:0.0100; stroke-opacity:1; 
stroke-linecap:round; stroke-linejoin:round;fill-rule:evenodd;"
d="M 111.1600,102.4900
111.1600,102.5900
111.1600,103.1000
111.0800,103.1400
109.8800,103.1400
109.7900,103.1000
109.7900,102.6000
109.8000,102.5000
109.8900,102.4800
109.9600,102.5200
109.9600,102.9200
110.0200,102.9600
110.3200,102.9600
110.3900,102.9300
110.3900,102.5300
110.4800,102.5000
110.5600,102.5300
110.5600,102.9300
110.6300,102.9600
110.9300,102.9600
111.0000,102.9300
111.0000,102.5300
111.0600,102.4800
Z" /> 
<path style="fill:#000000; fill-opacity:1.0000; 
stroke:#000000; stroke-width:0.0100; stroke-opacity:1; 
stroke-linecap:round; stroke-linejoin:round;fill-rule:evenodd;"
d="M 110.8200,114.3900
110.9100,114.4200
111.0000,114.4700
111.0900,114.5300
111.1600,114.6200
111.1600,114.9200
111.0900,115.0200
111.0200,115.1000
110.9500,115.1500
110.8700,115.1800
110.7600,115.1900
110.6800,115.2000
110.5800,115.2100
110.4600,115.2100
110.3400,115.2000
110.2500,115.2000
110.1600,115.1900
110.0600,115.1700
109.9800,115.1300
109.9200,115.0800
109.8400,114.9900
109.7900,114.8900
109.7900,114.6900
109.8000,114.5900
109.9000,114.5100
109.9900,114.4500
110.0700,114.4100
110.1600,114.3900
110.2400,114.4000
110.2500,114.5000
110.2000,114.5600
110.1100,114.5800
110.0200,114.6200
109.9500,114.7100
109.9500,114.8100
109.9900,114.9100
110.0600,114.9800
110.1300,115.0100
110.2400,115.0200
110.3300,115.0300
110.4400,115.0300
110.5500,115.0300
110.6600,115.0300
110.7500,115.0200
110.8500,115.0000
110.9200,114.9600
110.9900,114.8700
111.0000,114.7700
111.0000,114.6700
110.9100,114.6000
110.8200,114.5600
110.7300,114.5500
110.7100,114.4600
110.7400,114.3800
Z" /> 
<path style="fill:#000000; fill-opacity:1.0000; 
stroke:#000000; stroke-width:0.0100; stroke-opacity:1; 
stroke-linecap:round; stroke-linejoin:round;fill-rule:evenodd;"
d="M 109.9700,113.4000
109.9700,113.5000
109.9700,113.6000
111.0800,113.6000
111.1600,113.6400
111.1600,113.7400
111.0700,113.7700
110.0600,113.7700
109.9700,113.7800
109.9700,113.9800
109.9400,114.0700
109.8400,114.0700
109.7900,114.0000
109.7900,113.3900
109.8400,113.3200
109.9300,113.3200
Z" /> 
<path style="fill:#000000; fill-opacity:1.0000; 
stroke:#000000; stroke-width:0.0100; stroke-opacity:1; 
stroke-linecap:round; stroke-linejoin:round;fill-rule:evenodd;"
d="M 110.2800,110.6100
110.3700,110.6500
110.4500,110.7100
110.5100,110.7900
110.6000,110.8200
111.0600,110.6100
111.1600,110.6200
111.1600,110.7200
111.1200,110.7900
110.6500,110.9900
110.5600,111.0300
110.5600,111.1300
110.6200,111.1700
111.1300,111.1700
111.1600,111.2600
111.1600,111.3000
111.0800,111.3500
109.8600,111.3500
109.7900,111.3000
109.7900,110.8900
109.8500,110.7900
109.9800,110.8800
109.9700,110.9800
109.9700,111.0800
109.9700,111.1700
110.3800,111.1700
110.3900,111.0800
110.3900,110.9800
110.3900,110.9200
110.3200,110.8400
110.2400,110.7900
110.1600,110.7800
110.0700,110.8100
109.9900,110.8800
109.8500,110.7800
109.9200,110.7000
109.9800,110.6500
110.0700,110.6200
110.1700,110.6000
Z" /> 
<path style="fill:#000000; fill-opacity:1.0000; 
stroke:#000000; stroke-width:0.0100; stroke-opacity:1; 
stroke-linecap:round; stroke-linejoin:round;fill-rule:evenodd;"
d="M 111.1600,116.5400
111.1600,116.6400
111.1000,116.7000
110.1400,117.0400
110.1900,117.0600
111.1000,117.0600
111.1600,117.1200
111.1500,117.2200
111.0500,117.2300
109.8400,117.2300
109.7900,117.1500
109.7900,117.0500
109.8600,116.9900
110.8100,116.6500
110.7700,116.6300
109.8600,116.6300
109.7900,116.5800
109.8000,116.4800
109.9000,116.4700
111.1100,116.4700
Z" /> 
<path style="fill:#000000; fill-opacity:1.0000; 
stroke:#000000; stroke-width:0.0100; stroke-opacity:1; 
stroke-linecap:round; stroke-linejoin:round;fill-rule:evenodd;"
d="M 111.1600,106.1500
111.1600,106.2500
111.1000,106.3200
111.0200,106.3800
111.0100,106.4800
111.0100,106.6800
111.0500,106.7600
111.1300,106.8100
111.1600,106.8900
111.1600,106.9600
111.0800,106.9800
109.8200,106.6500
109.7900,106.5600
109.7920,106.5500
110.1300,106.5500
110.1800,106.5800
110.7800,106.6800
110.8500,106.6500
110.8500,106.4500
110.8300,106.4300
110.7300,106.4400
110.1300,106.5500
109.7920,106.5500
109.8100,106.4600
111.0800,106.1300
Z" /> 
<path style="fill:#000000; fill-opacity:1.0000; 
stroke:#000000; stroke-width:0.0100; stroke-opacity:1; 
stroke-linecap:round; stroke-linejoin:round;fill-rule:evenodd;"
d="M 110.2500,111.6600
110.3500,111.6800
110.4200,111.7300
110.4800,111.8000
110.5500,111.8900
110.5600,112.0000
110.5600,112.2000
110.6500,112.2200
111.0500,112.2200
111.1400,112.2300
111.1600,112.3200
111.1600,112.3500
111.0800,112.3900
109.8700,112.3900
109.7900,112.3600
109.7900,111.9500
109.8400,111.8500
109.9700,111.9300
109.9700,112.0300
109.9700,112.1300
109.9800,112.2200
110.3800,112.2200
110.3900,112.1300
110.3900,112.0300
110.3900,111.9500
110.3100,111.8700
110.2300,111.8300
110.1500,111.8300
110.0600,111.8600
109.9700,111.9300
109.8400,111.8400
109.9000,111.7600
109.9700,111.7100
110.0500,111.6700
110.1500,111.6500
Z" /> 
<path style="fill:#000000; fill-opacity:1.0000; 
stroke:#000000; stroke-width:0.0100; stroke-opacity:1; 
stroke-linecap:round; stroke-linejoin:round;fill-rule:evenodd;"
d="M 99.8300,107.2800
99.9000,107.3100
99.9600,107.3500
100.0100,107.4200
100.0800,107.4400
100.4400,107.2800
100.5200,107.2800
100.5200,107.3600
100.4900,107.4200
100.1200,107.5700
100.0500,107.6000
100.0500,107.6800
100.0900,107.7200
100.4900,107.7200
100.5200,107.7900
100.5200,107.8200
100.4600,107.8500
99.5000,107.8500
99.4500,107.8200
99.4500,107.5000
99.4900,107.4200
99.6000,107.4900
99.5800,107.5700
99.5800,107.6500
99.5900,107.7200
99.9100,107.7200
99.9200,107.6500
99.9200,107.5700
99.9200,107.5200
99.8600,107.4500
99.8000,107.4200
99.7300,107.4100
99.6700,107.4300
99.6000,107.4900
99.4900,107.4100
99.5400,107.3500
99.5900,107.3100
99.6600,107.2800
99.7400,107.2700
Z" /> 
<path style="fill:#000000; fill-opacity:1.0000; 
stroke:#000000; stroke-width:0.0100; stroke-opacity:1; 
stroke-linecap:round; stroke-linejoin:round;fill-rule:evenodd;"
d="M 100.5200,106.4200
100.5200,106.5000
100.4700,106.5600
100.2700,106.6900
100.2900,106.7400
100.4800,106.8800
100.5200,106.9400
100.5200,107.0200
100.4500,107.0300
99.9500,106.8000
99.5300,107.0000
99.4600,107.0200
99.4500,106.9400
99.4700,106.8800
99.6600,106.7400
99.6500,106.6800
99.4600,106.5400
99.4500,106.4700
99.4800,106.4100
99.5500,106.4400
99.9000,106.6100
99.9700,106.6300
100.4700,106.3900
Z" /> 
<path style="fill:#000000; fill-opacity:1.0000; 
stroke:#000000; stroke-width:0.0100; stroke-opacity:1; 
stroke-linecap:round; stroke-linejoin:round;fill-rule:evenodd;"
d="M 100.3000,105.5600
100.3600,105.5900
100.4100,105.6200
100.3200,105.7200
100.2700,105.6900
100.1900,105.6800
100.0300,105.6700
99.8600,105.6700
99.7900,105.6800
99.7000,105.6900
99.6500,105.7200
99.5900,105.7800
99.5800,105.8600
99.5800,105.9400
99.5900,106.0100
100.3900,106.0100
100.3900,105.8500
100.3800,105.7900
100.3300,105.7300
100.4100,105.6300
100.4700,105.6900
100.5200,105.7700
100.5200,106.0900
100.5200,106.1100
100.4600,106.1400
99.5000,106.1400
99.4500,106.1000
99.4500,105.7800
99.4800,105.7000
99.5400,105.6400
99.6000,105.5900
99.6500,105.5600
99.7300,105.5500
99.8100,105.5400
99.8800,105.5400
100.0600,105.5400
100.2100,105.5400
Z" /> 
</g>
<g style="fill:none; 
stroke:#000000; stroke-width:0.2000; stroke-opacity:1; 
stroke-linecap:round; stroke-linejoin:round;">
<path d="M107.7000 105.1000
L107.3000 105.1000
" />
<path d="M107.7000 105.9000
L107.3000 105.9000
" />
<path d="M94.6000 111.2000
L94.6000 110.8000
" />
<path d="M95.4000 111.2000
L95.4000 110.8000
" />
<path d="M99.8000 117.5000
L99.4000 117.5000
" />
<path d="M99.8000 118.3000
L99.4000 118.3000
" />
<circle cx="104.1000" cy="105.8000" r="0.1500" /> 
<path style="fill:#000000; fill-opacity:1.0000; 
stroke:#000000; stroke-width:0.0100; stroke-opacity:1; 
stroke-linecap:round; stroke-linejoin:round;fill-rule:evenodd;"
d="M 102.2300,95.1200
102.2800,95.1300
102.3300,95.1800
102.3500,95.2600
102.3500,95.3400
102.3400,95.4100
101.7100,95.4100
101.6700,95.3600
101.6700,95.2800
101.6900,95.1900
101.7300,95.1400
101.7800,95.1200
101.8500,95.1100
101.9400,95.1100
102.0600,95.1100
102.1600,95.1100
Z" /> 
<path style="fill:#000000; fill-opacity:1.0000; 
stroke:#000000; stroke-width:0.0100; stroke-opacity:1; 
stroke-linecap:round; stroke-linejoin:round;fill-rule:evenodd;"
d="M 102.8300,92.0700
102.8300,97.5600
102.8200,97.6400
102.8100,97.7200
102.7900,97.8000
102.7700,97.8700
102.7300,97.9500
102.6900,98.0100
102.6400,98.0800
102.5900,98.1400
102.5300,98.1900
102.4700,98.2400
102.4000,98.2800
102.3200,98.3100
102.2500,98.3300
102.1700,98.3500
102.0900,98.3600
102.0100,98.3600
101.9300,98.3600
101.8600,98.3500
101.7800,98.3200
101.7000,98.3000
101.6300,98.2600
101.5700,98.2200
101.5000,98.1700
101.4500,98.1100
101.4000,98.0500
101.3500,97.9800
101.3100,97.9200
101.2800,97.8400
101.2600,97.7700
101.2400,97.6900
101.2400,97.6100
101.2300,97.5700
101.2300,96.8500
101.4800,96.8500
101.4800,97.4100
101.5300,97.4500
101.6100,97.4500
101.6700,97.4200
101.6700,97.2700
101.7300,97.2300
102.5200,97.2300
102.5500,97.1700
102.5500,97.0900
102.5200,97.0400
101.7200,97.0400
101.6700,97.0000
101.6700,96.8400
101.6100,96.8100
101.5300,96.8100
101.4800,96.8500
101.2300,96.8500
101.2300,95.9300
101.4800,95.9300
101.4800,96.0100
101.4900,96.0800
101.5600,96.1200
101.7800,96.2100
101.7400,96.2400
101.5200,96.3300
101.4800,96.3800
101.4800,96.4600
101.4800,96.5400
101.5600,96.5400
101.9200,96.3800
101.9900,96.3700
102.4400,96.5500
102.5100,96.5700
102.5500,96.5200
102.5500,96.4400
102.5200,96.3500
102.2200,96.2300
102.2200,96.2000
102.5100,96.0800
102.5500,96.0200
102.5500,95.9400
102.5400,95.8600
102.4700,95.8700
102.0300,96.0500
101.9500,96.0600
101.5900,95.9000
101.5100,95.8700
101.4800,95.9300
101.2300,95.9300
101.2300,95.2300
101.4800,95.2300
101.4800,95.3200
101.4800,95.5500
101.5100,95.6100
102.4700,95.6100
102.5400,95.5900
102.5500,95.5200
102.5500,95.2800
102.5500,95.2500
102.5300,95.1700
102.5100,95.1000
102.4600,95.0300
102.4000,94.9800
102.3400,94.9400
102.2800,94.9200
102.2100,94.9100
102.1200,94.9100
102.0200,94.9000
101.9200,94.9000
101.8300,94.9100
101.7500,94.9200
101.7000,94.9400
101.6300,94.9700
101.5700,95.0200
101.5300,95.0900
101.5000,95.1500
101.4800,95.2300
101.2300,95.2300
101.2300,92.0000
101.3100,92.0000
102.8200,92.0000
Z" /> 
</g>
<g style="fill:none; 
stroke:#000000; stroke-width:0.2000; stroke-opacity:1; 
stroke-linecap:round; stroke-linejoin:round;">
<path d="M107.7000 99.1000
L107.3000 99.1000
" />
<path d="M107.7000 99.9000
L107.3000 99.9000
" />
<circle cx="93.1000" cy="118.1000" r="0.1500" /> 
</g>
<g style="fill:none; 
stroke:#000000; stroke-width:0.2000; stroke-opacity:1; 
stroke-linecap:round; stroke-linejoin:round;">
<path d="M93.1500 121.6500
L92.8500 121.6500
" />
<path d="M93.1500 122.3500
L92.8500 122.3500
" />
<path style="fill:#000000; fill-opacity:1.0000; 
stroke:#000000; stroke-width:0.0100; stroke-opacity:1; 
stroke-linecap:round; stroke-linejoin:round;fill-rule:evenodd;"
d="M 91.1300,117.6800
91.2000,117.7100
91.2600,117.7500
91.3100,117.8200
91.3800,117.8400
91.7400,117.6800
91.8200,117.6800
91.8200,117.7600
91.7900,117.8200
91.4200,117.9700
91.3500,118.0000
91.3500,118.0800
91.3900,118.1200
91.7900,118.1200
91.8200,118.1800
91.8200,118.2200
91.7600,118.2500
90.8000,118.2500
90.7500,118.2100
90.7500,117.9600
90.8800,117.9600
90.8800,118.0400
90.8900,118.1200
91.2100,118.1200
91.2200,118.0500
91.2200,117.9700
91.2200,117.9200
91.1600,117.8500
91.1000,117.8100
91.0300,117.8100
90.9700,117.8300
90.9000,117.8900
90.8800,117.9600
90.7500,117.9600
90.7500,117.9000
90.7900,117.8100
90.8400,117.7500
90.8900,117.7100
90.9600,117.6800
91.0400,117.6700
Z" /> 
<path style="fill:#000000; fill-opacity:1.0000; 
stroke:#000000; stroke-width:0.0100; stroke-opacity:1; 
stroke-linecap:round; stroke-linejoin:round;fill-rule:evenodd;"
d="M 91.8000,118.6900
91.8200,118.7700
91.8200,118.8500
91.7500,118.8700
91.0400,118.9900
91.0900,119.0100
91.8000,119.1300
91.8200,119.2000
91.8200,119.2800
91.7500,119.3100
90.8200,119.4900
90.7500,119.4800
90.7500,119.4000
90.8000,119.3600
91.5000,119.2300
91.5600,119.2000
91.4800,119.1900
90.7800,119.0700
90.7500,119.0100
90.7500,118.9300
90.8200,118.9100
91.5300,118.8000
91.5300,118.7700
90.8200,118.6400
90.7500,118.6200
90.7500,118.5400
90.7900,118.5000
Z" /> 
<path style="fill:#000000; fill-opacity:1.0000; 
stroke:#000000; stroke-width:0.0100; stroke-opacity:1; 
stroke-linecap:round; stroke-linejoin:round;fill-rule:evenodd;"
d="M 91.1100,119.7400
91.1800,119.7600
91.2400,119.7900
91.2900,119.8500
91.3400,119.9200
91.3500,120.0000
91.3500,120.1600
91.4100,120.1800
91.7300,120.1800
91.8000,120.1900
91.8200,120.2600
91.8200,120.2800
91.7600,120.3100
90.8100,120.3100
90.7500,120.2800
90.7500,119.9700
90.7800,119.8900
90.8800,119.9500
90.8800,120.0300
90.8800,120.1100
90.8900,120.1800
91.2100,120.1800
91.2200,120.1100
91.2200,120.0300
91.2200,119.9700
91.1500,119.9100
91.0900,119.8700
91.0200,119.8700
90.9600,119.9000
90.8900,119.9500
90.7800,119.8800
90.8300,119.8200
90.8800,119.7800
90.9500,119.7500
91.0300,119.7300
Z" /> 
</g>
<g style="fill:none; 
stroke:#000000; stroke-width:0.2000; stroke-opacity:1; 
stroke-linecap:round; stroke-linejoin:round;">
<path d="M99.6500 103.3500
L99.3500 103.3500
" />
<path d="M99.6500 102.6500
L99.3500 102.6500
" />
<path style="fill:#000000; fill-opacity:1.0000; 
stroke:#000000; stroke-width:0.0100; stroke-opacity:1; 
stroke-linecap:round; stroke-linejoin:round;fill-rule:evenodd;"
d="M 104.7700,95.1200
104.8200,95.1300
104.8700,95.1800
104.8900,95.2600
104.8900,95.3400
104.8900,95.4100
104.8100,95.4100
104.2500,95.4100
104.2100,95.3600
104.2100,95.2800
104.2300,95.2000
104.2700,95.1400
104.3200,95.1200
104.3800,95.1100
104.4800,95.1100
104.6000,95.1100
104.7000,95.1100
Z" /> 
<path style="fill:#000000; fill-opacity:1.0000; 
stroke:#000000; stroke-width:0.0100; stroke-opacity:1; 
stroke-linecap:round; stroke-linejoin:round;fill-rule:evenodd;"
d="M 105.3700,92.0300
105.3700,97.6800
105.3600,97.7600
105.3500,97.8400
105.3300,97.9200
105.3100,98.0000
105.2700,98.0700
105.2300,98.1400
105.1900,98.2000
105.1300,98.2600
105.0700,98.3100
105.0100,98.3600
104.9400,98.4000
104.8700,98.4300
104.7900,98.4600
104.7200,98.4800
104.6400,98.4900
104.5600,98.4900
104.4800,98.4900
104.4000,98.4700
104.3200,98.4500
104.2500,98.4200
104.1800,98.3900
104.1100,98.3500
104.0500,98.3000
103.9900,98.2400
103.9400,98.1800
103.8900,98.1200
103.8600,98.0500
103.8200,97.9700
103.8000,97.9000
103.7800,97.8200
103.7800,97.7400
103.7700,97.7000
103.7700,97.1600
104.0200,97.1600
104.0200,97.4800
104.0300,97.5600
104.1000,97.5800
105.0500,97.5800
105.0900,97.5200
105.0900,97.4400
105.0500,97.3800
104.7300,97.3800
104.6500,97.3800
104.6500,97.3000
104.7100,97.2500
105.0700,97.0800
105.0900,97.0000
105.0900,96.9200
105.0800,96.8400
105.0200,96.8400
104.6600,97.0100
104.6000,97.0000
104.5600,96.9200
104.5000,96.8700
104.4400,96.8300
104.3600,96.8100
104.2800,96.8200
104.2100,96.8400
104.1400,96.8800
104.0900,96.9400
104.0500,97.0000
104.0300,97.0800
104.0200,97.1600
103.7700,97.1600
103.7700,95.9200
104.0200,95.9200
104.0200,96.0000
104.0200,96.0800
104.0900,96.1100
104.3200,96.2000
104.2900,96.2400
104.0600,96.3200
104.0200,96.3800
104.0200,96.5400
104.0900,96.5400
104.4600,96.3900
104.5300,96.3600
104.6000,96.3900
104.9700,96.5400
105.0500,96.5700
105.0900,96.5300
105.0900,96.4500
105.0600,96.3500
104.7700,96.2400
104.7500,96.2000
105.0500,96.0800
105.0900,96.0200
105.0900,95.9400
105.0800,95.8700
105.0100,95.8600
104.5700,96.0500
104.5000,96.0600
104.1300,95.9000
104.0600,95.8700
104.0200,95.9200
103.7700,95.9200
103.7700,95.2300
104.0200,95.2300
104.0200,95.3100
104.0200,95.5500
104.0500,95.6100
105.0100,95.6100
105.0800,95.5900
105.0900,95.5200
105.0900,95.2800
105.0900,95.2500
105.0700,95.1700
105.0500,95.1000
105.0000,95.0300
104.9400,94.9800
104.8800,94.9400
104.8200,94.9200
104.7500,94.9100
104.6700,94.9100
104.5600,94.9000
104.4600,94.9000
104.3700,94.9100
104.3000,94.9200
104.2400,94.9400
104.1700,94.9700
104.1100,95.0200
104.0700,95.0800
104.0400,95.1500
104.0200,95.2300
103.7700,95.2300
103.7700,92.0400
103.8100,92.0000
105.3200,92.0000
Z" /> 
<path style="fill:#000000; fill-opacity:1.0000; 
stroke:#000000; stroke-width:0.0100; stroke-opacity:1; 
stroke-linecap:round; stroke-linejoin:round;fill-rule:evenodd;"
d="M 104.4300,97.2400
104.4600,97.3200
104.4600,97.4000
104.4300,97.4400
104.2700,97.4400
104.2100,97.4100
104.2100,97.3400
104.2200,97.2600
104.2900,97.2100
104.3700,97.2100
Z" /> 
<path style="fill:#000000; fill-opacity:1.0000; 
stroke:#000000; stroke-width:0.0100; stroke-opacity:1; 
stroke-linecap:round; stroke-linejoin:round;fill-rule:evenodd;"
d="M 97.0500,96.0400
97.1400,96.0400
97.1900,96.0500
97.2400,96.0900
97.2700,96.1600
97.2700,96.2500
97.2600,96.2900
97.1900,96.3200
97.1400,96.3300
97.0700,96.3400
96.9600,96.3400
96.8400,96.3400
96.7500,96.3400
96.6900,96.3300
96.6400,96.3000
96.6000,96.2400
96.6000,96.1400
96.6300,96.0800
96.6800,96.0500
96.7400,96.0400
96.8300,96.0300
96.9400,96.0300
Z" /> 
<path style="fill:#000000; fill-opacity:1.0000; 
stroke:#000000; stroke-width:0.0100; stroke-opacity:1; 
stroke-linecap:round; stroke-linejoin:round;fill-rule:evenodd;"
d="M 97.7500,92.0700
97.7500,97.0800
97.7400,97.1600
97.7300,97.2400
97.7200,97.3200
97.6900,97.3900
97.6600,97.4600
97.6200,97.5300
97.5700,97.6000
97.5200,97.6600
97.4600,97.7100
97.4000,97.7600
97.3300,97.8000
97.2600,97.8300
97.1800,97.8600
97.1000,97.8800
97.0300,97.8900
96.9500,97.9000
96.8700,97.8900
96.7900,97.8800
96.7100,97.8600
96.6400,97.8300
96.5700,97.8000
96.5000,97.7500
96.4300,97.7100
96.3800,97.6500
96.3200,97.5900
96.2800,97.5300
96.2400,97.4600
96.2100,97.3800
96.1800,97.3100
96.1700,97.2300
96.1600,97.1500
96.1500,97.1000
96.1500,96.1400
96.4000,96.1400
96.4000,96.2300
96.4200,96.3100
96.4500,96.3800
96.5000,96.4400
96.5600,96.4900
96.6200,96.5100
96.6800,96.5300
96.7600,96.5400
96.8500,96.5400
96.9600,96.5400
97.0600,96.5400
97.1500,96.5300
97.2100,96.5200
97.2600,96.5000
97.3700,96.7800
96.4200,96.7800
96.4000,96.8500
96.4000,96.9300
96.4400,96.9800
97.4000,96.9800
97.4700,96.9500
97.4700,96.8800
97.4500,96.7800
97.3800,96.7800
97.2700,96.5000
97.3400,96.4600
97.3900,96.4100
97.4300,96.3500
97.4600,96.2800
97.4700,96.1900
97.4700,96.1100
97.4500,96.0400
97.4000,95.9800
97.3400,95.9300
97.2700,95.8800
97.2200,95.8700
97.1500,95.8500
97.0700,95.8500
96.9700,95.8400
96.8600,95.8400
96.7700,95.8500
96.6900,95.8600
96.6200,95.8700
96.5700,95.8900
96.5000,95.9400
96.4500,96.0000
96.4200,96.0600
96.4000,96.1400
96.1500,96.1400
96.1500,95.2400
96.4000,95.2400
96.4000,95.3200
96.4100,95.4000
96.4500,95.4700
96.5000,95.5400
96.5500,95.5800
96.6100,95.6000
96.6800,95.6200
96.7600,95.6300
96.8500,95.6400
96.9600,95.6400
97.0600,95.6400
97.1500,95.6300
97.2200,95.6100
97.2800,95.5900
97.3300,95.5600
97.3900,95.5100
97.4300,95.4400
97.4600,95.3700
97.4700,95.2800
97.4700,95.2100
97.4500,95.1600
97.4000,95.0900
97.3500,95.0400
97.3000,95.0000
97.2400,94.9800
97.1700,94.9600
97.0800,94.9500
96.9800,94.9400
96.8800,94.9400
96.7800,94.9500
96.7000,94.9600
96.6300,94.9800
96.5700,95.0000
96.5100,95.0400
96.4600,95.0900
96.4200,95.1700
96.4000,95.2400
96.1500,95.2400
96.1500,92.0100
96.2200,92.0000
97.7400,92.0000
Z" /> 
<path style="fill:#000000; fill-opacity:1.0000; 
stroke:#000000; stroke-width:0.0100; stroke-opacity:1; 
stroke-linecap:round; stroke-linejoin:round;fill-rule:evenodd;"
d="M 97.0700,95.1400
97.1400,95.1500
97.2000,95.1600
97.2500,95.2000
97.2800,95.2700
97.2800,95.3600
97.2400,95.4000
97.1800,95.4200
97.1200,95.4300
97.0300,95.4400
96.9200,95.4400
96.8200,95.4400
96.7300,95.4300
96.6800,95.4200
96.6200,95.3900
96.5900,95.3200
96.6000,95.2300
96.6400,95.1700
96.6900,95.1500
96.7600,95.1400
96.8500,95.1400
96.9600,95.1300
Z" /> 
<path style="fill:#000000; fill-opacity:1.0000; 
stroke:#000000; stroke-width:0.0100; stroke-opacity:1; 
stroke-linecap:round; stroke-linejoin:round;fill-rule:evenodd;"
d="M 96.7300,119.4000
96.7900,119.4100
96.8600,119.4500
96.9200,119.4900
96.9400,119.5500
96.9400,119.6900
96.8900,119.7600
96.8500,119.8000
96.8000,119.8300
96.7300,119.8400
96.6600,119.8400
96.6400,119.7800
96.6700,119.7300
96.7300,119.7300
96.7900,119.7000
96.8400,119.6500
96.8400,119.5800
96.7900,119.5300
96.7300,119.5100
96.6600,119.5000
96.1100,119.5000
96.0500,119.5000
96.0300,119.4400
96.0600,119.3900
96.6700,119.3900
Z" /> 
<path style="fill:#000000; fill-opacity:1.0000; 
stroke:#000000; stroke-width:0.0100; stroke-opacity:1; 
stroke-linecap:round; stroke-linejoin:round;fill-rule:evenodd;"
d="M 96.9400,118.1900
96.9400,118.2600
96.8900,118.2900
96.2100,118.2900
96.2300,118.3400
96.3000,118.4500
96.2800,118.4900
96.2200,118.4700
96.0800,118.3300
96.0300,118.2800
96.0300,118.2100
96.0700,118.1700
96.8800,118.1700
Z" /> 
<path style="fill:#000000; fill-opacity:1.0000; 
stroke:#000000; stroke-width:0.0100; stroke-opacity:1; 
stroke-linecap:round; stroke-linejoin:round;fill-rule:evenodd;"
d="M 96.4000,118.7000
96.4500,118.7300
96.4900,118.7800
96.5300,118.8400
96.5400,118.9100
96.5400,119.0500
96.6000,119.0600
96.8700,119.0600
96.9300,119.0600
96.9400,119.1300
96.9400,119.1500
96.8900,119.1700
96.0800,119.1700
96.0300,119.1500
96.0300,118.8800
96.0600,118.8100
96.1500,118.8700
96.1400,118.9300
96.1400,119.0000
96.1500,119.0600
96.4200,119.0600
96.4300,119.0000
96.4300,118.9300
96.4300,118.8800
96.3800,118.8300
96.3200,118.8000
96.2700,118.8000
96.2100,118.8200
96.1500,118.8600
96.0600,118.8100
96.1000,118.7500
96.1400,118.7100
96.2000,118.6900
96.2700,118.6800
96.3400,118.6800
Z" /> 
<path style="fill:none; 
stroke:#000000; stroke-width:0.1200; stroke-opacity:1; 
stroke-linecap:round; stroke-linejoin:round;fill:none"
d="M 96.0000,114.9500
106.0000,114.9500
106.0000,111.0500
96.0000,111.0500
Z" /> 
</g>
<g style="fill:none; 
stroke:#000000; stroke-width:0.0650; stroke-opacity:1; 
stroke-linecap:round; stroke-linejoin:round;">
<circle cx="96.8000" cy="114.0000" r="0.3000" /> 
</g>
<g style="fill:none; 
stroke:#000000; stroke-width:0.2000; stroke-opacity:1; 
stroke-linecap:round; stroke-linejoin:round;">
<path d="M99.3500 101.3500
L99.6500 101.3500
" />
<path d="M99.3500 100.6500
L99.6500 100.6500
" />
<path d="M107.3000 125.0000
L109.7000 125.0000
" />
<path d="M107.3000 129.0000
L107.3000 125.0000
" />
<path d="M109.7000 125.0000
L109.7000 129.0000
" />
<path d="M109.7000 129.0000
L107.3000 129.0000
" />
<path style="fill:#000000; fill-opacity:1.0000; 
stroke:#000000; stroke-width:0.0100; stroke-opacity:1; 
stroke-linecap:round; stroke-linejoin:round;fill-rule:evenodd;"
d="M 100.2900,92.0600
100.2900,99.6900
100.2400,99.7100
98.7000,99.3300
98.9400,99.1500
98.9700,99.2100
99.9300,99.2100
100.0000,99.1900
100.0100,99.1100
100.0100,99.0300
100.0000,99.0200
99.9300,99.0100
99.6100,99.0100
99.5700,98.9700
99.6000,98.9000
99.9500,98.7300
100.0100,98.6800
100.0100,98.5200
99.9800,98.4500
99.9100,98.4900
99.6200,98.6200
99.5500,98.6600
99.5000,98.5900
99.4500,98.5200
99.3900,98.4800
99.3200,98.4500
99.2400,98.4400
99.1600,98.4600
99.0900,98.4900
99.0300,98.5400
98.9900,98.6000
98.9600,98.6700
98.9400,98.7500
98.9400,98.8300
98.9400,99.1500
98.6900,99.3300
98.6900,94.9700
98.9400,94.9700
98.9400,95.4500
98.9400,95.5300
99.0100,95.5400
99.0200,95.7800
98.9500,95.7900
98.9400,95.8600
98.9400,96.2600
98.9500,96.3400
99.0200,96.3500
99.9700,96.3500
99.8200,96.6200
99.7500,96.6000
99.6700,96.5900
99.5800,96.6000
99.5100,96.6300
99.4600,96.6800
99.4200,96.7400
99.3800,96.8100
99.3300,96.9900
99.3000,97.0500
99.2300,97.0800
99.1600,97.0600
99.1300,97.0000
99.1400,96.9100
99.1900,96.8600
99.2700,96.8400
99.2800,96.7600
99.2800,96.6800
99.2200,96.6500
99.1400,96.6600
99.0700,96.6900
99.0100,96.7400
98.9700,96.8000
98.9500,96.8700
98.9400,96.9600
98.9400,97.0500
98.9600,97.1300
98.9900,97.2000
99.0300,97.2600
99.0900,97.3100
99.1600,97.3400
99.2400,97.3500
99.3200,97.3400
99.3900,97.3200
99.4500,97.2800
99.4900,97.2200
99.5300,97.1400
99.5600,97.0500
99.5900,96.9600
99.6200,96.9100
99.6800,96.8700
99.7600,96.8800
99.8000,96.9500
99.8100,97.0300
99.7900,97.1000
99.7200,97.1400
99.6400,97.1500
99.6300,97.2300
99.6300,97.3100
99.6500,97.3800
99.7300,97.3800
99.8000,97.3500
99.8700,97.6200
99.8100,97.6500
99.8100,97.9700
99.7500,98.0000
99.6000,98.0000
99.5700,97.9400
99.5700,97.7000
99.5500,97.6300
99.4700,97.6300
99.3900,97.6400
99.3800,97.7200
99.3800,97.9500
99.3400,98.0000
99.1800,98.0000
99.1300,97.9600
99.1300,97.7200
99.1300,97.6400
99.0600,97.6200
98.9800,97.6200
98.9400,97.6800
98.9400,98.1500
98.9900,98.2000
99.9400,98.2000
100.0100,98.1700
100.0100,97.6900
99.9500,97.6200
99.8700,97.6200
99.8100,97.3500
99.8700,97.3100
99.9300,97.2600
99.9700,97.1900
99.9900,97.1200
100.0100,97.0400
100.0100,96.9500
100.0000,96.8600
99.9700,96.7900
99.9400,96.7200
99.8900,96.6700
99.8300,96.6200
99.9800,96.3500
100.0100,96.2900
100.0100,95.8100
99.9900,95.7700
99.9100,95.7700
99.8300,95.7700
99.8100,95.8400
99.8100,96.0800
99.8000,96.1500
99.7200,96.1500
99.6400,96.1500
99.5700,96.1400
99.5700,95.8200
99.5100,95.7900
99.4300,95.7900
99.3800,95.8200
99.3800,96.1400
99.3000,96.1500
99.1400,96.1500
99.1300,96.0800
99.1300,95.8400
99.1000,95.7800
99.0200,95.7800
99.0200,95.5400
99.1000,95.5400
99.1300,95.4900
99.1300,95.3300
99.2100,95.3200
99.9300,95.3200
100.0000,95.3100
100.0100,95.2300
100.0100,95.1500
99.9500,95.1300
99.1500,95.1300
99.1300,95.0600
99.1300,94.9800
99.1200,94.9100
99.0400,94.9000
98.9600,94.9000
98.9400,94.9700
98.6900,94.9700
98.6900,92.0100
98.7600,92.0000
100.2700,92.0000
Z" /> 
<path style="fill:#000000; fill-opacity:1.0000; 
stroke:#000000; stroke-width:0.0100; stroke-opacity:1; 
stroke-linecap:round; stroke-linejoin:round;fill-rule:evenodd;"
d="M 99.3200,98.8500
99.3700,98.9100
99.3800,98.9900
99.3100,99.0700
99.1500,99.0700
99.1300,99.0100
99.1300,98.9200
99.1700,98.8600
99.2500,98.8300
Z" /> 
</g>
<g style="fill:#000000; fill-opacity:1.0000; stroke:none;">
<circle cx="98.1380" cy="123.8000" r="0.3250" /> 
</g>
<g style="fill:#000000; fill-opacity:1.0000; stroke:none;">
<circle cx="103.9130" cy="123.8000" r="0.3250" /> 
</g>
<g style="fill:none; 
stroke:#000000; stroke-width:0.6000; stroke-opacity:1; 
stroke-linecap:round; stroke-linejoin:round;">
<path d="M105.3130 122.7750
L105.3130 123.8750
" />
<path d="M96.6880 122.7750
L96.6880 123.8750
" />
<path d="M105.3130 126.9250
L105.3130 128.0250
" />
<path d="M96.6880 126.9250
L96.6880 128.0250
" />
</g>
<g style="fill:#000000; fill-opacity:1.0000; stroke:none;">
<circle cx="93.0000" cy="127.0000" r="1.6000" /> 
</g>
<g style="fill:#000000; fill-opacity:1.0000; stroke:none;">
<circle cx="93.0000" cy="95.0000" r="1.6000" /> 
</g>
<g style="fill:#000000; fill-opacity:1.0000; stroke:none;">
<circle cx="109.6500" cy="93.5000" r="0.5000" /> 
</g>
<g style="fill:#000000; fill-opacity:1.0000; stroke:none;">
<circle cx="107.1100" cy="93.5000" r="0.5000" /> 
</g>
<g style="fill:#000000; fill-opacity:1.0000; stroke:none;">
<circle cx="104.5700" cy="93.5000" r="0.5000" /> 
</g>
<g style="fill:#000000; fill-opacity:1.0000; stroke:none;">
<circle cx="102.0300" cy="93.5000" r="0.5000" /> 
</g>
<g style="fill:#000000; fill-opacity:1.0000; stroke:none;">
<circle cx="99.4900" cy="93.5000" r="0.5000" /> 
</g>
<g style="fill:#000000; fill-opacity:1.0000; stroke:none;">
<circle cx="96.9500" cy="93.5000" r="0.5000" /> 
</g>
<g style="fill:#FFFFFF; fill-opacity:1.0000; stroke:none;">
<circle cx="98.1380" cy="123.8000" r="0.3250" /> 
</g>
<g style="fill:#FFFFFF; fill-opacity:1.0000; stroke:none;">
<circle cx="103.9130" cy="123.8000" r="0.3250" /> 
</g>
<g style="fill:none; 
stroke:#FFFFFF; stroke-width:0.6000; stroke-opacity:1; 
stroke-linecap:round; stroke-linejoin:round;">
<path d="M105.3130 122.7750
L105.3130 123.8750
" />
<path d="M96.6880 122.7750
L96.6880 123.8750
" />
<path d="M105.3130 126.9250
L105.3130 128.0250
" />
<path d="M96.6880 126.9250
L96.6880 128.0250
" />
</g>
<g style="fill:#FFFFFF; fill-opacity:1.0000; stroke:none;">
<circle cx="93.0000" cy="127.0000" r="1.6000" /> 
</g>
<g style="fill:#FFFFFF; fill-opacity:1.0000; stroke:none;">
<circle cx="93.0000" cy="95.0000" r="1.6000" /> 
</g>
<g style="fill:#FFFFFF; fill-opacity:1.0000; stroke:none;">
<circle cx="109.6500" cy="93.5000" r="0.5000" /> 
</g>
<g style="fill:#FFFFFF; fill-opacity:1.0000; stroke:none;">
<circle cx="107.1100" cy="93.5000" r="0.5000" /> 
</g>
<g style="fill:#FFFFFF; fill-opacity:1.0000; stroke:none;">
<circle cx="104.5700" cy="93.5000" r="0.5000" /> 
</g>
<g style="fill:#FFFFFF; fill-opacity:1.0000; stroke:none;">
<circle cx="102.0300" cy="93.5000" r="0.5000" /> 
</g>
<g style="fill:#FFFFFF; fill-opacity:1.0000; stroke:none;">
<circle cx="99.4900" cy="93.5000" r="0.5000" /> 
</g>
<g style="fill:#FFFFFF; fill-opacity:1.0000; stroke:none;">
<circle cx="96.9500" cy="93.5000" r="0.5000" /> 
</g> 
</svg>
