<?xml version="1.0" standalone="no"?>
 <!DOCTYPE svg PUBLIC "-//W3C//DTD SVG 1.1//EN" 
 "http://www.w3.org/Graphics/SVG/1.1/DTD/svg11.dtd"> 
<svg
  xmlns:svg="http://www.w3.org/2000/svg"
  xmlns="http://www.w3.org/2000/svg"
  xmlns:xlink="http://www.w3.org/1999/xlink"
  version="1.1"
  width="297.0022mm" height="210.0072mm" viewBox="0.0000 0.0000 297.0022 210.0072">
<title>SVG Image created as CONNECT_programmer-User_Drawings.svg date 2025/07/08 09:28:46 </title>
  <desc>Image generated by PCBNEW </desc>
<g style="fill:#000000; fill-opacity:1.0000;stroke:#000000; stroke-opacity:1.0000;
stroke-linecap:round; stroke-linejoin:round;"
 transform="translate(0 0) scale(1 1)">
</g>
<g style="fill:none; 
stroke:#000000; stroke-width:0.1200; stroke-opacity:1; 
stroke-linecap:round; stroke-linejoin:round;">
<path d="M95.3000 100.4800
L96.7000 100.4800
" />
<path d="M96.7000 103.5200
L95.3000 103.5200
" />
<path d="M95.3000 103.5200
L95.3000 100.4800
" />
<path d="M96.7000 100.4800
L96.7000 103.5200
" />
<circle cx="96.4000" cy="102.9000" r="0.1414" /> 
<path d="M92.2000 123.9000
L92.2000 123.1000
" />
<path d="M92.2000 123.1000
L93.8000 123.1000
" />
<path d="M93.8000 123.1000
L93.8000 123.9000
" />
<path d="M93.8000 123.9000
L92.2000 123.9000
" />
<path d="M103.7000 100.4800
L103.7000 103.5200
" />
<path d="M103.7000 103.5200
L102.3000 103.5200
" />
<path d="M102.3000 100.4800
L103.7000 100.4800
" />
<path d="M102.3000 103.5200
L102.3000 100.4800
" />
<circle cx="102.6000" cy="101.1000" r="0.1414" /> 
<path d="M98.2000 106.2000
L98.8000 106.2000
" />
<path d="M98.8000 107.2000
L98.2000 107.2000
" />
<path d="M98.8000 106.2000
L98.8000 107.2000
" />
<path d="M98.2000 107.2000
L98.2000 106.2000
" />
<path d="M96.7000 107.2000
L96.7000 106.2000
" />
<path d="M97.3000 106.2000
L97.3000 107.2000
" />
<path d="M96.7000 106.2000
L97.3000 106.2000
" />
<path d="M97.3000 107.2000
L96.7000 107.2000
" />
<path d="M104.7000 107.2000
L104.7000 106.2000
" />
<path d="M105.3000 107.2000
L104.7000 107.2000
" />
<path d="M105.3000 106.2000
L105.3000 107.2000
" />
<path d="M104.7000 106.2000
L105.3000 106.2000
" />
<path d="M108.2000 105.9000
L106.7000 105.9000
" />
<path d="M106.7000 105.9000
L106.7000 105.1000
" />
<path d="M108.2000 105.1000
L108.2000 105.9000
" />
<path d="M106.7000 105.1000
L108.2000 105.1000
" />
<path d="M95.4000 111.7000
L94.6000 111.7000
" />
<path d="M95.4000 110.2000
L95.4000 111.7000
" />
<path d="M94.6000 111.7000
L94.6000 110.2000
" />
<path d="M94.6000 110.2000
L95.4000 110.2000
" />
<path d="M98.8000 118.3000
L98.8000 117.5000
" />
<path d="M100.3000 118.3000
L98.8000 118.3000
" />
<path d="M98.8000 117.5000
L100.3000 117.5000
" />
<path d="M100.3000 117.5000
L100.3000 118.3000
" />
<path d="M103.2000 107.2000
L103.2000 106.2000
" />
<path d="M103.8000 106.2000
L103.8000 107.2000
" />
<path d="M103.2000 106.2000
L103.8000 106.2000
" />
<path d="M103.8000 107.2000
L103.2000 107.2000
" />
<path d="M108.2000 99.9000
L106.7000 99.9000
" />
<path d="M108.2000 99.1000
L108.2000 99.9000
" />
<path d="M106.7000 99.9000
L106.7000 99.1000
" />
<path d="M106.7000 99.1000
L108.2000 99.1000
" />
<path d="M92.8000 119.5000
L92.2000 119.5000
" />
<path d="M92.2000 119.5000
L92.2000 118.5000
" />
<path d="M92.8000 118.5000
L92.8000 119.5000
" />
<path d="M92.2000 118.5000
L92.8000 118.5000
" />
<path d="M93.8000 122.4000
L92.2000 122.4000
" />
<path d="M92.2000 121.6000
L93.8000 121.6000
" />
<path d="M93.8000 121.6000
L93.8000 122.4000
" />
<path d="M92.2000 122.4000
L92.2000 121.6000
" />
<path d="M100.3000 102.6000
L100.3000 103.4000
" />
<path d="M100.3000 103.4000
L98.7000 103.4000
" />
<path d="M98.7000 103.4000
L98.7000 102.6000
" />
<path d="M98.7000 102.6000
L100.3000 102.6000
" />
<path d="M94.0500 118.5000
L94.0500 119.5000
" />
<path d="M93.4500 119.5000
L93.4500 118.5000
" />
<path d="M93.4500 118.5000
L94.0500 118.5000
" />
<path d="M94.0500 119.5000
L93.4500 119.5000
" />
<path d="M98.7000 101.4000
L98.7000 100.6000
" />
<path d="M100.3000 100.6000
L100.3000 101.4000
" />
<path d="M100.3000 101.4000
L98.7000 101.4000
" />
<path d="M98.7000 100.6000
L100.3000 100.6000
" />
<path d="M109.7000 129.0000
L107.3000 129.0000
" />
<path d="M107.3000 125.0000
L109.7000 125.0000
" />
<path d="M107.3000 129.0000
L107.3000 125.0000
" />
<path d="M109.7000 125.0000
L109.7000 129.0000
" />
</g>
<g style="fill:#000000; fill-opacity:1.0000; stroke:none;">
<circle cx="98.1380" cy="123.8000" r="0.3250" /> 
</g>
<g style="fill:#000000; fill-opacity:1.0000; stroke:none;">
<circle cx="103.9130" cy="123.8000" r="0.3250" /> 
</g>
<g style="fill:none; 
stroke:#000000; stroke-width:0.6000; stroke-opacity:1; 
stroke-linecap:round; stroke-linejoin:round;">
<path d="M105.3130 122.7750
L105.3130 123.8750
" />
<path d="M96.6880 122.7750
L96.6880 123.8750
" />
<path d="M105.3130 126.9250
L105.3130 128.0250
" />
<path d="M96.6880 126.9250
L96.6880 128.0250
" />
</g>
<g style="fill:#000000; fill-opacity:1.0000; stroke:none;">
<circle cx="93.0000" cy="127.0000" r="1.6000" /> 
</g>
<g style="fill:#000000; fill-opacity:1.0000; stroke:none;">
<circle cx="93.0000" cy="95.0000" r="1.6000" /> 
</g>
<g style="fill:#000000; fill-opacity:1.0000; stroke:none;">
<circle cx="109.6500" cy="93.5000" r="0.5000" /> 
</g>
<g style="fill:#000000; fill-opacity:1.0000; stroke:none;">
<circle cx="107.1100" cy="93.5000" r="0.5000" /> 
</g>
<g style="fill:#000000; fill-opacity:1.0000; stroke:none;">
<circle cx="104.5700" cy="93.5000" r="0.5000" /> 
</g>
<g style="fill:#000000; fill-opacity:1.0000; stroke:none;">
<circle cx="102.0300" cy="93.5000" r="0.5000" /> 
</g>
<g style="fill:#000000; fill-opacity:1.0000; stroke:none;">
<circle cx="99.4900" cy="93.5000" r="0.5000" /> 
</g>
<g style="fill:#000000; fill-opacity:1.0000; stroke:none;">
<circle cx="96.9500" cy="93.5000" r="0.5000" /> 
</g>
<g style="fill:#FFFFFF; fill-opacity:1.0000; stroke:none;">
<circle cx="98.1380" cy="123.8000" r="0.3250" /> 
</g>
<g style="fill:#FFFFFF; fill-opacity:1.0000; stroke:none;">
<circle cx="103.9130" cy="123.8000" r="0.3250" /> 
</g>
<g style="fill:none; 
stroke:#FFFFFF; stroke-width:0.6000; stroke-opacity:1; 
stroke-linecap:round; stroke-linejoin:round;">
<path d="M105.3130 122.7750
L105.3130 123.8750
" />
<path d="M96.6880 122.7750
L96.6880 123.8750
" />
<path d="M105.3130 126.9250
L105.3130 128.0250
" />
<path d="M96.6880 126.9250
L96.6880 128.0250
" />
</g>
<g style="fill:#FFFFFF; fill-opacity:1.0000; stroke:none;">
<circle cx="93.0000" cy="127.0000" r="1.6000" /> 
</g>
<g style="fill:#FFFFFF; fill-opacity:1.0000; stroke:none;">
<circle cx="93.0000" cy="95.0000" r="1.6000" /> 
</g>
<g style="fill:#FFFFFF; fill-opacity:1.0000; stroke:none;">
<circle cx="109.6500" cy="93.5000" r="0.5000" /> 
</g>
<g style="fill:#FFFFFF; fill-opacity:1.0000; stroke:none;">
<circle cx="107.1100" cy="93.5000" r="0.5000" /> 
</g>
<g style="fill:#FFFFFF; fill-opacity:1.0000; stroke:none;">
<circle cx="104.5700" cy="93.5000" r="0.5000" /> 
</g>
<g style="fill:#FFFFFF; fill-opacity:1.0000; stroke:none;">
<circle cx="102.0300" cy="93.5000" r="0.5000" /> 
</g>
<g style="fill:#FFFFFF; fill-opacity:1.0000; stroke:none;">
<circle cx="99.4900" cy="93.5000" r="0.5000" /> 
</g>
<g style="fill:#FFFFFF; fill-opacity:1.0000; stroke:none;">
<circle cx="96.9500" cy="93.5000" r="0.5000" /> 
</g> 
</svg>
